<?xml version="1.0" standalone="no"?>
<!DOCTYPE svg PUBLIC "-//W3C//DTD SVG 20010904//EN"
 "http://www.w3.org/TR/2001/REC-SVG-20010904/DTD/svg10.dtd">
<svg version="1.0" xmlns="http://www.w3.org/2000/svg"
 width="300.000000pt" height="219.000000pt" viewBox="0 0 300.000000 219.000000"
 preserveAspectRatio="xMidYMid meet">
<metadata>
Created by potrace 1.10, written by Peter Selinger 2001-2011
</metadata>
<g transform="translate(0.000000,219.000000) scale(0.100000,-0.100000)"
fill="#000000" stroke="none">
<path d="M1486 1924 c-10 -74 -7 -224 4 -224 6 0 10 52 10 135 0 74 -2 135 -4
135 -2 0 -6 -21 -10 -46z"/>
<path d="M1296 1905 c22 -95 73 -238 79 -223 7 17 -59 226 -76 243 -7 7 -8 0
-3 -20z"/>
<path d="M1655 1843 c-56 -131 -67 -163 -52 -163 7 0 30 43 50 95 36 91 55
155 45 155 -3 0 -22 -39 -43 -87z"/>
<path d="M1406 1789 c11 -85 18 -108 29 -98 6 7 -27 189 -35 189 -4 0 -1 -41
6 -91z"/>
<path d="M1575 1869 c-6 -17 -35 -157 -35 -170 0 -5 4 -9 8 -9 9 0 44 181 37
189 -3 2 -7 -2 -10 -10z"/>
<path d="M1130 1799 c13 -19 45 -64 72 -100 26 -37 48 -70 48 -75 0 -4 -20 12
-45 36 -25 24 -45 40 -45 34 0 -5 19 -28 43 -51 40 -39 43 -40 59 -24 17 17
14 22 -58 112 -73 92 -120 135 -74 68z"/>
<path d="M1441 1815 c-2 -40 12 -124 19 -120 4 2 3 30 -2 62 -10 66 -16 87
-17 58z"/>
<path d="M1230 1819 c0 -18 83 -169 90 -164 5 3 -7 36 -27 73 -33 61 -63 105
-63 91z"/>
<path d="M1791 1745 c-79 -92 -95 -115 -86 -123 9 -9 121 122 159 186 20 34
-16 3 -73 -63z"/>
<path d="M1587 1756 c-19 -59 -22 -91 -7 -65 11 18 32 110 27 115 -2 2 -11
-20 -20 -50z"/>
<path d="M1696 1745 c-41 -71 -62 -92 -52 -54 l6 24 -12 -23 c-12 -25 -6 -36
28 -46 18 -5 26 1 48 38 36 62 32 71 -5 13 -47 -72 -47 -48 0 38 51 92 40 100
-13 10z"/>
<path d="M1306 1743 c9 -21 18 -46 21 -55 5 -16 23 -26 23 -13 0 10 -50 105
-55 105 -3 0 2 -17 11 -37z"/>
<path d="M1244 1714 c10 -17 27 -41 38 -55 16 -20 16 -17 -3 19 -13 24 -30 49
-38 55 -11 9 -10 3 3 -19z"/>
<path d="M1090 1713 c0 -5 27 -35 60 -68 33 -32 58 -61 55 -63 -2 -2 -23 10
-47 28 l-43 32 43 -41 c38 -35 46 -38 58 -26 8 7 14 15 14 18 0 2 -31 32 -70
66 -38 35 -70 59 -70 54z"/>
<path d="M1815 1654 c-36 -31 -68 -54 -71 -52 -2 3 13 24 33 49 l37 44 -47
-44 c-40 -38 -44 -46 -31 -58 12 -13 19 -11 52 15 43 35 109 102 100 102 -4 0
-37 -25 -73 -56z"/>
<path d="M1067 1605 c98 -72 123 -86 123 -66 0 11 -49 49 -133 100 -106 65
-101 48 10 -34z"/>
<path d="M1407 1669 c-93 -22 -175 -89 -224 -181 -24 -46 -28 -64 -28 -143 0
-99 16 -147 74 -215 43 -51 49 -30 7 25 -149 195 -26 475 221 501 123 13 240
-51 300 -164 29 -56 33 -73 33 -137 0 -41 -4 -85 -10 -99 -11 -31 4 -36 20 -7
16 32 12 160 -7 215 -20 55 -85 133 -139 166 -69 43 -165 58 -247 39z"/>
<path d="M1890 1615 c-58 -35 -109 -64 -113 -65 -5 0 13 21 40 46 l48 45 -52
-38 c-29 -20 -53 -40 -53 -43 0 -3 9 -16 19 -29 l19 -25 42 19 c52 24 65 42
13 20 -92 -40 -85 -32 55 58 94 61 115 78 95 76 -5 0 -55 -29 -113 -64z"/>
<path d="M1535 1620 c-18 -20 -18 -21 2 -42 l21 -21 23 22 c22 20 22 21 4 41
-23 25 -27 25 -50 0z"/>
<path d="M1471 1571 c25 -70 95 -97 178 -68 42 15 46 25 22 57 -19 24 -20 24
-40 6 -11 -10 -41 -21 -65 -23 -41 -5 -48 -3 -76 27 l-30 32 11 -31z"/>
<path d="M1023 1558 c15 -7 27 -15 27 -20 0 -4 24 -22 53 -39 60 -35 51 -35
-98 5 -79 21 -108 25 -94 12 2 -2 54 -20 114 -39 101 -33 111 -35 123 -20 19
26 15 31 -40 55 -28 12 -46 24 -40 26 6 2 29 -6 51 -17 45 -23 51 -25 51 -12
0 8 -80 43 -110 47 -8 1 -26 5 -40 8 -23 5 -23 5 3 -6z"/>
<path d="M1873 1523 c-40 -19 -70 -39 -67 -44 6 -10 62 17 120 56 51 35 32 31
-53 -12z"/>
<path d="M1335 1523 c-22 -9 -42 -18 -44 -19 -4 -4 19 -64 25 -64 2 0 22 10
45 22 55 28 94 17 94 -27 0 -35 -35 -58 -77 -51 -33 6 -33 7 -12 -37 13 -28
21 -33 40 -29 31 6 64 -23 64 -54 0 -27 -44 -64 -77 -64 -65 0 -122 50 -149
133 l-14 42 4 -47 c5 -60 40 -132 78 -160 19 -13 51 -23 84 -26 48 -4 56 -2
83 25 38 39 48 90 26 133 -16 31 -16 32 4 25 11 -3 28 -2 38 3 16 9 18 5 18
-45 0 -46 4 -58 25 -75 33 -27 93 -19 128 16 49 49 40 192 -15 236 -54 43
-133 11 -171 -68 -18 -36 -50 -56 -71 -43 -9 6 -6 18 13 46 33 48 33 75 0 114
-30 36 -73 40 -139 14z m375 -114 c27 -50 4 -124 -46 -145 -32 -13 -38 -13
-59 0 -37 24 -37 73 0 120 44 57 83 66 105 25z"/>
<path d="M1950 1495 c-70 -16 -88 -24 -70 -28 16 -4 12 -5 -12 -3 -21 1 -39
-3 -41 -9 -3 -6 37 -10 117 -10 168 -1 204 -24 129 -83 -120 -94 -452 -212
-723 -255 -197 -32 -360 -30 -382 5 -14 24 65 88 141 114 38 13 40 27 6 30
-25 3 -215 -59 -195 -63 8 -2 42 5 75 16 33 11 61 19 62 17 2 -2 -18 -14 -45
-29 -59 -32 -97 -71 -89 -92 4 -8 19 -21 34 -27 38 -16 38 -15 22 -35 -13 -17
-13 -17 13 0 20 12 48 17 105 17 84 0 298 24 373 42 266 63 555 178 640 254
73 66 42 103 -93 113 l-82 6 52 13 c29 8 55 18 59 23 3 5 4 8 2 8 -2 -1 -46
-12 -98 -24z"/>
<path d="M1045 1441 c31 -12 99 -21 89 -12 -5 5 -31 11 -59 14 -29 3 -41 2
-30 -2z"/>
<path d="M972 1425 c12 -12 152 -34 161 -25 5 4 -16 10 -45 14 -29 4 -69 9
-88 13 -19 3 -32 2 -28 -2z"/>
<path d="M1858 1423 c-16 -2 -28 -8 -28 -12 0 -9 73 -4 130 9 31 7 29 8 -20 7
-30 0 -67 -2 -82 -4z"/>
<path d="M1860 1390 l-35 -7 35 -1 c19 0 46 4 60 8 l25 8 -25 0 c-14 0 -41 -4
-60 -8z"/>
<path d="M1835 1362 c-17 -17 6 -22 94 -22 56 0 103 4 106 10 4 6 -18 10 -57
11 -35 0 -80 1 -100 3 -21 2 -40 1 -43 -2z"/>
<path d="M900 1350 c63 -15 230 -17 230 -2 0 9 -33 12 -132 11 -92 -1 -122 -3
-98 -9z"/>
<path d="M1045 1310 l-30 -8 35 0 c19 0 46 4 60 8 24 8 24 8 -5 8 -16 0 -43
-4 -60 -8z"/>
<path d="M1830 1302 c0 -15 70 -26 83 -13 8 8 4 11 -13 11 -14 0 -35 3 -47 6
-13 4 -23 2 -23 -4z"/>
<path d="M980 1280 c-16 -6 7 -8 63 -5 49 2 91 6 94 9 9 9 -129 5 -157 -4z"/>
<path d="M1912 1231 c-9 -5 9 -14 52 -25 87 -22 126 -20 61 3 -74 26 -99 31
-113 22z"/>
<path d="M1100 1201 c-45 -22 -107 -61 -97 -61 4 0 34 14 67 30 33 17 66 30
75 30 8 0 15 5 15 10 0 14 -19 11 -60 -9z"/>
<path d="M1810 1191 c0 -8 77 -41 95 -41 11 1 -75 49 -87 50 -5 0 -8 -4 -8 -9z"/>
<path d="M1110 1169 c-26 -15 -29 -18 -10 -13 40 11 70 23 70 29 0 10 -26 4
-60 -16z"/>
<path d="M1710 1135 c-91 -93 -221 -125 -333 -82 -62 25 -85 15 -27 -11 87
-40 199 -38 284 5 53 27 155 133 128 133 -4 0 -28 -20 -52 -45z"/>
<path d="M1110 1133 c-30 -20 -49 -38 -42 -40 15 -6 115 49 114 62 -1 19 -18
13 -72 -22z"/>
<path d="M1776 1154 c-3 -9 -6 -17 -6 -19 0 -2 17 -14 38 -26 20 -13 43 -27
50 -32 6 -4 12 -6 12 -3 0 3 -20 19 -45 37 -74 53 -44 43 65 -21 56 -34 107
-59 112 -58 13 5 -189 138 -207 138 -7 0 -16 -7 -19 -16z"/>
<path d="M1751 1118 c0 -13 130 -128 145 -128 11 0 -41 53 -98 102 -27 22 -48
34 -47 26z"/>
<path d="M1732 1092 c5 -14 88 -85 93 -80 3 2 -15 23 -39 46 -42 40 -62 52
-54 34z"/>
<path d="M1700 1073 c0 -12 161 -205 167 -200 4 4 -70 113 -123 180 -21 25
-44 36 -44 20z"/>
<path d="M1197 1018 c-65 -82 -107 -141 -103 -145 5 -5 70 64 126 135 28 35
37 52 27 52 -9 0 -31 -19 -50 -42z"/>
<path d="M1247 1009 c-16 -28 -27 -53 -24 -55 5 -5 67 87 67 99 0 20 -18 1
-43 -44z"/>
<path d="M1680 1055 c0 -8 64 -95 67 -91 5 5 -51 95 -59 96 -5 0 -8 -2 -8 -5z"/>
<path d="M1095 1020 c-40 -42 -28 -45 19 -4 22 19 33 34 25 34 -9 0 -28 -13
-44 -30z"/>
<path d="M1261 969 c-24 -44 -41 -82 -39 -85 3 -2 26 30 52 73 26 42 43 80 39
84 -5 5 -28 -28 -52 -72z"/>
<path d="M1657 1044 c-3 -5 14 -41 37 -81 44 -75 56 -92 56 -77 0 18 -87 166
-93 158z"/>
<path d="M1311 979 c-29 -66 -21 -74 9 -9 13 27 21 52 18 55 -3 3 -15 -17 -27
-46z"/>
<path d="M1608 1019 c-16 -9 -15 -17 17 -104 34 -95 64 -159 65 -139 0 6 -16
60 -35 120 -19 60 -35 114 -35 119 0 6 14 -14 30 -42 17 -29 32 -53 35 -53 7
0 -44 105 -52 107 -5 1 -16 -2 -25 -8z"/>
<path d="M1318 923 c-47 -128 -51 -143 -41 -143 8 0 97 211 95 227 0 4 -4 9
-9 10 -5 2 -25 -41 -45 -94z"/>
<path d="M1387 1003 c-2 -4 -7 -26 -11 -48 -4 -22 -10 -48 -13 -59 -3 -10 -1
-16 4 -13 11 7 37 116 30 123 -3 3 -7 2 -10 -3z"/>
<path d="M1570 1004 c0 -15 32 -106 36 -102 5 6 -18 92 -27 103 -6 5 -9 5 -9
-1z"/>
<path d="M1415 988 c-14 -43 -31 -177 -21 -167 11 11 43 179 35 179 -5 0 -12
-6 -14 -12z"/>
<path d="M1445 945 c-4 -31 -5 -58 -2 -61 2 -3 8 20 12 51 3 31 4 59 2 62 -3
2 -9 -21 -12 -52z"/>
<path d="M1470 875 c0 -68 4 -126 9 -129 4 -3 11 36 15 86 9 134 8 155 -9 162
-13 5 -15 -13 -15 -119z"/>
<path d="M1516 955 c10 -76 23 -98 17 -30 -3 33 -10 64 -14 70 -5 5 -6 -12 -3
-40z"/>
<path d="M1540 993 c0 -18 31 -167 35 -172 8 -7 6 22 -6 104 -6 41 -15 75 -20
75 -5 0 -9 -3 -9 -7z"/>
<path d="M697 663 c-4 -3 -7 -51 -7 -105 0 -80 3 -98 15 -98 12 0 15 13 15 55
0 42 4 57 16 62 33 12 49 -11 46 -66 -3 -41 -1 -51 12 -51 13 0 16 12 16 60 0
55 -2 61 -26 72 -20 9 -30 9 -45 0 -18 -11 -19 -9 -19 33 0 42 -7 54 -23 38z"/>
<path d="M540 648 c0 -4 11 -8 25 -8 25 0 25 -1 25 -90 0 -73 3 -90 15 -90 12
0 15 17 15 90 0 89 0 90 25 90 14 0 25 4 25 8 0 5 -29 8 -65 8 -36 0 -65 -3
-65 -8z"/>
<path d="M1021 634 c-26 -22 -31 -33 -31 -71 0 -24 5 -53 11 -65 24 -45 121
-58 151 -20 11 14 10 15 -7 8 -71 -27 -109 -15 -124 39 -22 81 34 144 100 111
16 -8 31 -10 35 -5 7 12 -38 29 -76 29 -16 0 -42 -11 -59 -26z"/>
<path d="M1896 564 c-51 -106 -50 -104 -35 -104 5 0 15 14 20 30 10 27 15 30
54 30 38 0 44 -3 55 -30 7 -16 19 -30 26 -30 8 0 14 2 14 4 0 4 -81 189 -85
194 -1 1 -23 -41 -49 -94z m59 10 c19 -47 20 -44 -19 -44 l-34 0 15 40 c9 22
18 40 19 40 2 0 11 -16 19 -36z"/>
<path d="M860 580 c-39 -39 -21 -104 33 -123 21 -8 67 8 67 23 0 7 -7 7 -21
-1 -27 -14 -64 1 -72 30 -5 19 -1 21 44 21 41 0 49 3 49 18 0 25 -31 52 -58
52 -12 0 -31 -9 -42 -20z m54 4 c9 -3 16 -15 16 -25 0 -14 -7 -19 -30 -19 -31
0 -39 17 -18 38 14 14 12 14 32 6z"/>
<path d="M1192 577 c-44 -47 -15 -120 48 -120 62 0 90 65 49 117 -26 33 -68
34 -97 3z m73 -3 c37 -38 0 -124 -42 -98 -36 22 -22 114 17 114 5 0 16 -7 25
-16z"/>
<path d="M1342 588 c-22 -22 -13 -48 23 -69 19 -12 35 -25 35 -30 0 -16 -32
-23 -51 -10 -15 9 -19 8 -19 -3 0 -21 41 -27 67 -10 34 22 29 51 -12 71 -45
21 -48 47 -5 41 19 -3 29 -1 27 6 -5 16 -50 19 -65 4z"/>
<path d="M1447 593 c-4 -3 -7 -35 -7 -70 0 -48 3 -63 15 -63 10 0 15 15 17 58
3 50 6 57 25 60 26 4 38 -27 31 -83 -3 -24 0 -35 9 -35 9 0 13 15 13 49 0 51
18 78 45 67 11 -4 15 -21 15 -61 0 -42 3 -55 15 -55 21 0 20 88 -1 118 -16 23
-43 29 -60 12 -8 -8 -19 -7 -38 1 -20 9 -29 10 -38 1 -8 -8 -16 -8 -23 -2 -7
5 -15 7 -18 3z"/>
<path d="M1676 593 c-3 -3 -6 -35 -6 -70 0 -49 3 -63 15 -63 12 0 15 14 15 64
0 60 -8 84 -24 69z"/>
<path d="M1752 583 c-39 -34 -30 -103 17 -123 22 -9 34 -9 50 0 29 15 26 18
-11 16 -43 -2 -68 38 -50 79 11 24 17 27 47 22 35 -6 48 6 19 17 -27 10 -51 7
-72 -11z"/>
<path d="M2050 541 c0 -50 4 -62 22 -75 12 -8 26 -12 31 -9 5 3 23 6 39 5 l29
-1 -3 67 c-3 78 -22 86 -26 12 -2 -35 -8 -53 -21 -59 -28 -15 -40 1 -43 58 -4
79 -28 81 -28 2z"/>
<path d="M2210 600 c-1 -3 -3 -35 -4 -72 -2 -50 0 -68 10 -68 17 0 23 108 7
129 -7 9 -13 14 -13 11z"/>
<path d="M2253 593 c-22 -8 -14 -23 13 -23 15 0 24 5 22 12 -5 14 -18 18 -35
11z"/>
<path d="M2323 593 c-7 -2 -13 -12 -13 -21 0 -12 3 -13 12 -4 20 20 58 15 58
-7 0 -13 -9 -21 -29 -26 -35 -8 -54 -27 -49 -52 3 -15 14 -18 68 -19 36 -1 59
1 53 3 -8 3 -13 23 -13 53 0 67 -34 95 -87 73z m57 -87 c0 -24 -23 -41 -41
-30 -15 9 -10 32 9 43 26 16 32 13 32 -13z"/>
<path d="M2055 400 c-3 -5 -3 -10 2 -10 4 0 -3 -6 -16 -13 -30 -15 -35 -28
-18 -50 22 -32 47 -11 47 39 0 44 -4 52 -15 34z"/>
<path d="M844 378 c9 -12 16 -30 16 -40 0 -10 5 -18 10 -18 6 0 10 11 10 24 0
14 5 28 10 31 6 3 10 12 10 18 0 7 -8 3 -16 -8 -14 -19 -16 -19 -25 -2 -6 9
-15 17 -20 17 -6 0 -3 -10 5 -22z"/>
<path d="M1170 365 c0 -39 24 -60 53 -44 12 7 17 21 16 47 l-2 37 -6 -35 c-9
-50 -41 -55 -41 -6 0 20 -4 36 -10 36 -5 0 -10 -16 -10 -35z"/>
<path d="M1812 388 c-30 -30 5 -89 44 -74 21 8 18 46 -3 45 -11 0 -13 -3 -5
-6 19 -7 14 -23 -7 -23 -10 0 -22 7 -25 16 -8 22 13 47 36 41 10 -3 18 -1 18
4 0 13 -44 11 -58 -3z"/>
<path d="M927 373 c-13 -12 -7 -51 8 -57 14 -5 45 17 45 33 0 21 -39 39 -53
24z m33 -23 c0 -11 -7 -20 -15 -20 -15 0 -21 21 -8 33 12 13 23 7 23 -13z"/>
<path d="M1001 353 c-1 -29 2 -33 24 -33 22 0 25 4 24 33 -1 29 -2 29 -8 8 -9
-35 -29 -37 -34 -4 -4 27 -4 27 -6 -4z"/>
<path d="M1271 348 c1 -28 2 -29 7 -10 8 26 27 26 26 0 0 -10 3 -18 8 -18 5 0
8 12 6 28 -2 19 -9 28 -25 30 -20 3 -23 -1 -22 -30z"/>
<path d="M1347 373 c-11 -10 -8 -53 3 -53 6 0 10 14 10 30 0 31 -2 35 -13 23z"/>
<path d="M1385 359 c8 -26 22 -45 29 -38 2 2 7 18 11 34 l6 30 -15 -25 c-11
-19 -15 -21 -16 -8 0 9 -5 20 -11 24 -8 4 -9 -1 -4 -17z"/>
<path d="M1455 359 c-9 -28 19 -59 37 -41 9 9 8 12 -5 12 -9 0 -17 5 -17 11 0
6 7 8 16 5 11 -4 14 -1 12 11 -5 26 -35 28 -43 2z"/>
<path d="M1584 368 c-4 -6 1 -17 11 -25 17 -12 18 -13 1 -13 -9 0 -14 -4 -11
-10 9 -15 25 -12 32 6 3 9 0 20 -8 25 -12 8 -12 11 1 19 13 8 13 10 -2 10 -9
0 -20 -5 -24 -12z"/>
<path d="M1664 373 c18 -5 18 -6 -5 -24 -19 -15 -21 -21 -10 -28 23 -15 42 -1
39 28 -2 17 -10 26 -23 28 -19 2 -19 2 -1 -4z"/>
<path d="M1901 354 c-1 -37 4 -43 30 -37 13 4 19 14 19 36 0 17 -3 27 -7 23
-4 -4 -8 -15 -8 -23 0 -29 -23 -25 -28 4 l-4 28 -2 -31z"/>
<path d="M2102 368 c-27 -27 2 -68 35 -49 16 9 16 10 -4 11 -13 0 -23 5 -23
10 0 6 8 10 18 8 21 -4 23 26 2 30 -9 1 -21 -3 -28 -10z"/>
</g>
</svg>
