<svg xmlns="http://www.w3.org/2000/svg" viewBox="0 0 1248 832"><path d="M 613,622 L 611,624 L 611,687 L 612,688 L 611,689 L 611,690 L 612,691 L 612,720 L 613,721 L 613,739 L 614,740 L 614,754 L 615,755 L 615,764 L 616,765 L 616,773 L 617,774 L 617,776 L 618,776 L 619,775 L 619,771 L 620,770 L 620,766 L 621,765 L 621,760 L 622,759 L 622,751 L 623,750 L 623,741 L 624,740 L 624,729 L 625,728 L 625,716 L 626,715 L 626,699 L 627,698 L 627,678 L 628,677 L 628,623 L 627,622 Z" fill="gold" stroke="black" stroke-width="1"/><path d="M 588,621 L 588,626 L 587,627 L 587,635 L 586,636 L 586,644 L 585,645 L 585,664 L 584,665 L 584,694 L 585,695 L 584,696 L 585,697 L 585,707 L 586,708 L 586,707 L 587,706 L 587,704 L 588,703 L 588,699 L 589,698 L 589,695 L 590,694 L 590,689 L 591,688 L 591,684 L 592,683 L 592,679 L 593,678 L 593,674 L 594,673 L 594,668 L 595,667 L 595,663 L 596,662 L 596,656 L 597,655 L 597,651 L 598,650 L 598,645 L 599,644 L 599,638 L 600,637 L 600,631 L 601,630 L 601,622 L 600,621 Z" fill="gold" stroke="black" stroke-width="1"/><path d="M 648,619 L 647,620 L 642,620 L 641,621 L 640,621 L 640,624 L 641,625 L 641,629 L 642,630 L 642,633 L 643,634 L 643,638 L 644,639 L 644,643 L 645,644 L 645,647 L 646,648 L 646,651 L 647,652 L 647,656 L 648,657 L 648,660 L 649,661 L 649,665 L 650,666 L 650,670 L 651,671 L 651,674 L 652,675 L 652,678 L 653,679 L 653,683 L 654,684 L 654,688 L 655,689 L 655,692 L 656,693 L 656,696 L 657,697 L 657,698 L 658,699 L 658,704 L 659,705 L 659,706 L 660,706 L 660,679 L 659,678 L 659,667 L 658,666 L 658,656 L 657,655 L 657,648 L 656,647 L 656,641 L 655,640 L 655,636 L 654,635 L 654,631 L 653,630 L 653,625 L 652,624 L 652,621 L 651,620 L 651,619 Z" fill="gold" stroke="black" stroke-width="1"/><path d="M 566,617 L 565,618 L 565,619 L 564,620 L 564,622 L 563,623 L 563,626 L 562,627 L 562,630 L 561,631 L 561,633 L 560,634 L 560,638 L 559,639 L 559,643 L 558,644 L 558,647 L 557,648 L 557,651 L 556,652 L 556,656 L 555,657 L 555,661 L 554,662 L 554,665 L 553,666 L 553,670 L 552,671 L 552,675 L 551,676 L 551,680 L 550,681 L 550,685 L 549,686 L 549,690 L 548,691 L 548,695 L 547,696 L 547,702 L 546,703 L 546,709 L 545,710 L 545,716 L 544,717 L 544,723 L 543,724 L 543,731 L 542,732 L 542,741 L 541,742 L 541,749 L 542,749 L 543,748 L 543,747 L 544,746 L 544,745 L 545,744 L 545,742 L 546,741 L 546,738 L 547,737 L 547,735 L 548,734 L 548,733 L 549,732 L 549,729 L 550,728 L 550,726 L 551,725 L 551,723 L 552,722 L 552,719 L 553,718 L 553,716 L 554,715 L 554,712 L 555,711 L 555,709 L 556,708 L 556,705 L 557,704 L 557,701 L 558,700 L 558,698 L 559,697 L 559,694 L 560,693 L 560,689 L 561,688 L 561,686 L 562,685 L 562,682 L 563,681 L 563,679 L 564,678 L 564,675 L 565,674 L 565,670 L 566,669 L 566,666 L 567,665 L 567,662 L 568,661 L 568,658 L 569,657 L 569,654 L 570,653 L 570,650 L 571,649 L 571,646 L 572,645 L 572,641 L 573,640 L 573,637 L 574,636 L 574,633 L 575,632 L 575,629 L 576,628 L 576,624 L 577,623 L 577,619 L 573,619 L 572,618 L 569,618 L 568,617 Z" fill="gold" stroke="black" stroke-width="1"/><path d="M 674,613 L 673,614 L 670,614 L 669,615 L 666,615 L 665,616 L 664,616 L 664,619 L 665,620 L 665,622 L 666,623 L 666,625 L 667,626 L 667,628 L 668,629 L 668,631 L 669,632 L 669,635 L 670,636 L 670,638 L 671,639 L 671,641 L 672,642 L 672,644 L 673,645 L 673,647 L 674,648 L 674,650 L 675,651 L 675,653 L 676,654 L 676,656 L 677,657 L 677,659 L 678,660 L 678,662 L 679,663 L 679,666 L 680,667 L 680,669 L 681,670 L 681,672 L 682,673 L 682,674 L 683,675 L 683,677 L 684,678 L 684,680 L 685,681 L 685,684 L 686,685 L 686,686 L 687,687 L 687,689 L 688,690 L 688,692 L 689,693 L 689,695 L 690,696 L 690,698 L 691,699 L 691,701 L 692,702 L 692,703 L 693,704 L 693,706 L 694,707 L 694,710 L 695,711 L 695,712 L 696,713 L 696,715 L 697,716 L 697,718 L 698,719 L 698,721 L 699,722 L 699,724 L 700,725 L 700,726 L 701,727 L 701,729 L 702,730 L 702,732 L 703,733 L 703,734 L 704,735 L 704,736 L 705,737 L 705,739 L 706,740 L 706,741 L 707,742 L 708,742 L 708,739 L 707,738 L 707,729 L 706,728 L 706,722 L 705,721 L 705,717 L 704,716 L 704,711 L 703,710 L 703,705 L 702,704 L 702,700 L 701,699 L 701,696 L 700,695 L 700,692 L 699,691 L 699,688 L 698,687 L 698,683 L 697,682 L 697,679 L 696,678 L 696,675 L 695,674 L 695,671 L 694,670 L 694,667 L 693,666 L 693,663 L 692,662 L 692,660 L 691,659 L 691,656 L 690,655 L 690,653 L 689,652 L 689,650 L 688,649 L 688,646 L 687,645 L 687,643 L 686,642 L 686,640 L 685,639 L 685,637 L 684,636 L 684,633 L 683,632 L 683,631 L 682,630 L 682,628 L 681,627 L 681,625 L 680,624 L 680,622 L 679,621 L 679,619 L 678,618 L 678,617 L 677,616 L 677,614 L 676,613 Z" fill="gold" stroke="black" stroke-width="1"/><path d="M 542,612 L 542,614 L 541,615 L 541,616 L 540,617 L 540,619 L 539,620 L 539,621 L 538,622 L 538,624 L 537,625 L 537,627 L 536,628 L 536,630 L 535,631 L 535,633 L 534,634 L 534,636 L 533,637 L 533,640 L 532,641 L 532,643 L 531,644 L 531,646 L 530,647 L 530,649 L 529,650 L 529,652 L 528,653 L 528,655 L 527,656 L 527,659 L 526,660 L 526,662 L 525,663 L 525,665 L 524,666 L 524,669 L 523,670 L 523,673 L 522,674 L 522,678 L 521,679 L 521,682 L 523,682 L 523,681 L 524,680 L 524,679 L 525,678 L 525,677 L 526,676 L 526,675 L 527,674 L 527,673 L 528,672 L 528,671 L 530,669 L 530,667 L 531,666 L 531,665 L 532,664 L 532,663 L 533,662 L 533,661 L 534,660 L 534,659 L 535,658 L 535,656 L 536,655 L 536,654 L 537,653 L 537,652 L 538,651 L 538,650 L 539,649 L 539,648 L 540,647 L 540,645 L 541,644 L 541,643 L 542,642 L 542,640 L 543,639 L 543,638 L 544,637 L 544,636 L 545,635 L 545,634 L 546,633 L 546,631 L 547,630 L 547,628 L 548,627 L 548,626 L 549,625 L 549,624 L 550,623 L 550,621 L 551,620 L 551,619 L 552,618 L 552,614 L 551,614 L 550,613 L 548,613 L 547,612 Z" fill="gold" stroke="black" stroke-width="1"/><path d="M 418,607 L 417,608 L 409,608 L 408,609 L 400,609 L 397,612 L 396,612 L 396,613 L 387,622 L 387,623 L 379,631 L 379,632 L 373,638 L 373,639 L 367,645 L 367,646 L 363,650 L 363,651 L 360,654 L 360,655 L 357,658 L 357,659 L 355,661 L 355,662 L 353,664 L 353,665 L 352,666 L 352,668 L 353,667 L 354,667 L 357,664 L 358,664 L 361,661 L 362,661 L 366,657 L 367,657 L 372,652 L 373,652 L 378,647 L 379,647 L 386,640 L 387,640 L 401,626 L 402,626 L 402,625 L 403,624 L 404,624 L 404,623 L 405,622 L 406,622 L 406,621 L 407,620 L 408,620 L 408,619 L 409,618 L 410,618 L 410,617 L 411,616 L 412,616 L 412,615 L 419,608 Z" fill="gold" stroke="black" stroke-width="1"/><path d="M 694,605 L 693,606 L 691,606 L 690,607 L 689,607 L 688,608 L 687,608 L 687,611 L 688,612 L 688,613 L 689,614 L 689,615 L 690,616 L 690,617 L 691,618 L 691,619 L 692,620 L 692,621 L 693,622 L 693,623 L 694,624 L 694,625 L 695,626 L 695,627 L 696,628 L 696,629 L 698,631 L 698,632 L 699,633 L 699,634 L 700,635 L 700,636 L 701,637 L 701,638 L 702,639 L 702,640 L 703,641 L 703,642 L 704,643 L 704,644 L 706,646 L 706,647 L 707,648 L 707,649 L 708,650 L 708,651 L 709,652 L 709,653 L 711,655 L 711,656 L 712,657 L 712,658 L 713,659 L 713,660 L 715,662 L 715,663 L 716,664 L 716,665 L 718,667 L 718,668 L 719,669 L 719,670 L 721,672 L 721,673 L 723,675 L 723,676 L 724,677 L 724,678 L 725,678 L 725,674 L 724,673 L 724,671 L 723,670 L 723,667 L 722,666 L 722,664 L 721,663 L 721,662 L 720,661 L 720,659 L 719,658 L 719,656 L 718,655 L 718,653 L 717,652 L 717,651 L 716,650 L 716,648 L 715,647 L 715,645 L 714,644 L 714,643 L 713,642 L 713,641 L 712,640 L 712,638 L 711,637 L 711,636 L 710,635 L 710,634 L 709,633 L 709,631 L 708,630 L 708,629 L 707,628 L 707,627 L 706,626 L 706,625 L 705,624 L 705,622 L 704,621 L 704,620 L 703,619 L 703,618 L 702,617 L 702,616 L 701,615 L 701,614 L 700,613 L 700,612 L 699,611 L 699,610 L 698,609 L 698,608 L 697,607 L 697,606 L 696,605 Z" fill="gold" stroke="black" stroke-width="1"/><path d="M 520,605 L 517,608 L 517,609 L 516,610 L 516,611 L 515,612 L 515,614 L 514,615 L 514,616 L 513,617 L 513,618 L 512,619 L 512,620 L 511,621 L 511,622 L 510,623 L 510,625 L 508,627 L 508,629 L 507,630 L 507,631 L 506,632 L 506,633 L 505,634 L 505,635 L 504,636 L 504,637 L 503,638 L 503,640 L 502,641 L 502,642 L 501,643 L 501,644 L 500,645 L 500,646 L 499,647 L 499,649 L 498,650 L 498,651 L 497,652 L 497,653 L 496,654 L 496,655 L 495,656 L 495,657 L 494,658 L 494,659 L 493,660 L 493,661 L 492,662 L 492,664 L 491,665 L 491,666 L 490,667 L 490,668 L 489,669 L 489,670 L 488,671 L 488,673 L 487,674 L 487,675 L 486,676 L 486,677 L 485,678 L 485,679 L 484,680 L 484,681 L 483,682 L 483,684 L 482,685 L 482,687 L 481,688 L 481,689 L 480,690 L 480,691 L 479,692 L 479,693 L 478,694 L 478,696 L 477,697 L 477,698 L 476,699 L 476,701 L 475,702 L 475,703 L 474,704 L 474,706 L 473,707 L 473,708 L 472,709 L 472,711 L 471,712 L 471,713 L 470,714 L 470,716 L 469,717 L 469,719 L 468,720 L 468,722 L 467,723 L 467,725 L 466,726 L 466,728 L 465,729 L 465,732 L 464,733 L 464,736 L 466,736 L 466,735 L 467,734 L 467,733 L 469,731 L 469,730 L 471,728 L 471,727 L 473,725 L 473,724 L 474,723 L 474,722 L 476,720 L 476,719 L 477,718 L 477,717 L 479,715 L 479,714 L 480,713 L 480,712 L 481,711 L 481,710 L 483,708 L 483,707 L 484,706 L 484,705 L 485,704 L 485,703 L 486,702 L 486,701 L 487,700 L 487,699 L 489,697 L 489,696 L 490,695 L 490,694 L 491,693 L 491,692 L 492,691 L 492,690 L 494,688 L 494,687 L 495,686 L 495,685 L 496,684 L 496,683 L 497,682 L 497,681 L 498,680 L 498,679 L 499,678 L 499,677 L 500,676 L 500,675 L 501,674 L 501,673 L 502,672 L 502,671 L 503,670 L 503,669 L 504,668 L 504,667 L 505,666 L 505,665 L 506,664 L 506,663 L 507,662 L 507,661 L 508,660 L 508,659 L 509,658 L 509,657 L 510,656 L 510,655 L 511,654 L 511,653 L 512,652 L 512,651 L 513,650 L 513,649 L 514,648 L 514,647 L 515,646 L 515,645 L 516,644 L 516,643 L 517,642 L 517,640 L 518,639 L 518,638 L 519,637 L 519,636 L 520,635 L 520,634 L 521,633 L 521,632 L 522,631 L 522,629 L 523,628 L 523,627 L 524,626 L 524,625 L 525,624 L 525,623 L 526,622 L 526,621 L 527,620 L 527,619 L 528,618 L 528,617 L 529,616 L 529,614 L 530,613 L 530,611 L 531,610 L 531,609 L 530,608 L 528,608 L 527,607 L 525,607 L 524,606 L 521,606 Z" fill="gold" stroke="black" stroke-width="1"/><path d="M 493,604 L 492,605 L 492,606 L 491,607 L 491,608 L 489,610 L 489,611 L 487,613 L 487,614 L 486,615 L 486,616 L 485,617 L 485,618 L 483,620 L 483,621 L 482,622 L 482,623 L 481,624 L 481,625 L 479,627 L 479,628 L 478,629 L 478,630 L 477,631 L 477,632 L 476,633 L 476,634 L 475,635 L 475,636 L 474,637 L 474,638 L 472,640 L 472,641 L 471,642 L 471,643 L 470,644 L 470,645 L 469,646 L 469,647 L 468,648 L 468,649 L 467,650 L 467,651 L 465,653 L 465,655 L 464,656 L 464,657 L 463,658 L 463,661 L 464,661 L 465,660 L 465,659 L 467,657 L 468,657 L 468,656 L 473,651 L 473,650 L 478,645 L 478,644 L 481,641 L 481,640 L 485,636 L 485,635 L 488,632 L 488,631 L 491,628 L 491,627 L 493,625 L 493,624 L 495,622 L 495,621 L 498,618 L 498,617 L 500,615 L 500,614 L 501,613 L 501,612 L 502,611 L 502,610 L 505,607 L 505,605 L 501,605 L 500,604 Z" fill="gold" stroke="black" stroke-width="1"/><path d="M 463,604 L 462,605 L 456,605 L 455,606 L 455,607 L 451,611 L 451,612 L 448,615 L 448,616 L 445,619 L 445,620 L 443,622 L 443,623 L 440,626 L 440,627 L 438,629 L 438,630 L 435,633 L 435,634 L 433,636 L 433,637 L 431,639 L 431,640 L 429,642 L 429,643 L 427,645 L 427,646 L 425,648 L 425,649 L 424,650 L 424,651 L 422,653 L 422,654 L 421,655 L 421,656 L 419,658 L 419,659 L 418,660 L 418,661 L 417,662 L 417,663 L 416,664 L 416,665 L 415,666 L 415,668 L 416,667 L 417,667 L 422,662 L 423,662 L 435,650 L 436,650 L 438,648 L 438,647 L 439,646 L 440,646 L 440,645 L 451,634 L 451,633 L 458,626 L 458,625 L 461,622 L 461,621 L 466,616 L 466,615 L 468,613 L 468,612 L 472,608 L 472,607 L 474,605 L 474,604 Z" fill="gold" stroke="black" stroke-width="1"/><path d="M 717,595 L 716,596 L 715,596 L 714,597 L 713,597 L 712,598 L 711,598 L 710,599 L 709,599 L 708,600 L 708,602 L 709,603 L 709,604 L 710,605 L 710,606 L 711,607 L 711,608 L 713,610 L 713,611 L 715,613 L 715,614 L 716,615 L 716,616 L 717,617 L 717,618 L 719,620 L 719,621 L 721,623 L 721,624 L 722,625 L 722,626 L 724,628 L 724,629 L 725,630 L 725,631 L 727,633 L 727,634 L 728,635 L 728,636 L 730,638 L 730,639 L 731,640 L 731,641 L 733,643 L 733,644 L 735,646 L 735,647 L 737,649 L 737,650 L 738,651 L 738,652 L 740,654 L 740,655 L 741,656 L 741,657 L 743,659 L 743,660 L 745,662 L 745,663 L 746,664 L 746,665 L 748,667 L 748,668 L 749,669 L 749,670 L 751,672 L 751,673 L 753,675 L 753,676 L 756,679 L 756,680 L 757,681 L 757,682 L 759,684 L 759,685 L 760,686 L 760,687 L 763,690 L 763,691 L 765,693 L 765,694 L 766,695 L 766,696 L 768,698 L 768,699 L 771,702 L 771,703 L 773,705 L 773,706 L 775,708 L 775,709 L 777,711 L 777,712 L 779,714 L 779,715 L 782,718 L 782,719 L 784,719 L 783,718 L 783,715 L 782,714 L 782,712 L 781,711 L 781,710 L 780,709 L 780,707 L 779,706 L 779,704 L 778,703 L 778,702 L 777,701 L 777,700 L 776,699 L 776,698 L 775,697 L 775,695 L 774,694 L 774,693 L 773,692 L 773,691 L 772,690 L 772,689 L 771,688 L 771,687 L 770,686 L 770,685 L 769,684 L 769,683 L 768,682 L 768,681 L 767,680 L 767,679 L 766,678 L 766,677 L 765,676 L 765,675 L 764,674 L 764,673 L 763,672 L 763,671 L 762,670 L 762,669 L 761,668 L 761,667 L 760,666 L 760,665 L 759,664 L 759,663 L 757,661 L 757,660 L 756,659 L 756,658 L 755,657 L 755,656 L 754,655 L 754,654 L 753,653 L 753,652 L 752,651 L 752,650 L 751,649 L 751,648 L 750,647 L 750,646 L 748,644 L 748,643 L 747,642 L 747,641 L 746,640 L 746,639 L 744,637 L 744,636 L 743,635 L 743,634 L 742,633 L 742,632 L 741,631 L 741,630 L 739,628 L 739,627 L 738,626 L 738,625 L 736,623 L 736,622 L 735,621 L 735,620 L 733,618 L 733,617 L 732,616 L 732,615 L 730,613 L 730,612 L 728,610 L 728,609 L 727,608 L 727,607 L 725,605 L 725,604 L 724,603 L 724,602 L 722,600 L 722,599 L 720,597 L 720,596 L 719,595 Z" fill="gold" stroke="black" stroke-width="1"/><path d="M 737,582 L 736,583 L 735,583 L 732,586 L 731,586 L 729,588 L 729,589 L 731,591 L 731,592 L 735,596 L 735,597 L 740,602 L 740,603 L 746,609 L 746,610 L 751,615 L 751,616 L 757,622 L 757,623 L 765,631 L 765,632 L 777,644 L 779,644 L 779,643 L 778,642 L 778,641 L 777,640 L 777,639 L 776,638 L 776,637 L 775,636 L 775,635 L 774,634 L 774,633 L 772,631 L 772,630 L 770,628 L 770,627 L 769,626 L 769,625 L 767,623 L 767,622 L 766,621 L 766,620 L 764,618 L 764,617 L 762,615 L 762,614 L 760,612 L 760,611 L 758,609 L 758,608 L 755,605 L 755,604 L 753,602 L 753,601 L 751,599 L 751,598 L 749,596 L 749,595 L 746,592 L 746,591 L 743,588 L 743,587 L 741,585 L 741,584 L 739,582 Z" fill="gold" stroke="black" stroke-width="1"/><path d="M 757,565 L 749,573 L 748,573 L 748,576 L 763,591 L 763,592 L 764,592 L 765,593 L 765,594 L 766,594 L 767,595 L 767,596 L 778,607 L 778,608 L 791,621 L 791,622 L 792,622 L 793,623 L 793,624 L 839,670 L 840,670 L 847,677 L 848,677 L 850,679 L 851,679 L 854,682 L 856,682 L 855,681 L 855,680 L 854,679 L 854,678 L 853,677 L 853,676 L 851,674 L 851,673 L 849,671 L 849,670 L 848,669 L 848,668 L 846,666 L 846,665 L 844,663 L 844,662 L 841,659 L 841,658 L 839,656 L 839,655 L 836,652 L 836,651 L 833,648 L 833,647 L 829,643 L 829,642 L 824,637 L 824,636 L 820,632 L 820,631 L 813,624 L 813,623 L 808,618 L 808,617 L 800,609 L 800,608 L 792,600 L 792,599 L 758,565 Z" fill="gold" stroke="black" stroke-width="1"/><path d="M 458,549 L 457,550 L 456,550 L 452,554 L 451,554 L 445,560 L 444,560 L 439,565 L 438,565 L 434,569 L 442,569 L 443,568 L 453,568 L 459,562 L 460,562 L 460,561 L 463,558 L 464,558 L 464,556 L 463,555 L 463,553 L 462,553 L 461,552 L 461,551 L 459,549 Z" fill="gold" stroke="black" stroke-width="1"/><path d="M 770,548 L 766,552 L 766,553 L 763,556 L 763,557 L 764,558 L 765,558 L 771,564 L 772,564 L 776,568 L 777,568 L 781,572 L 782,572 L 785,575 L 786,575 L 789,578 L 790,578 L 793,581 L 794,581 L 797,584 L 798,584 L 801,587 L 802,587 L 804,589 L 805,589 L 807,591 L 808,591 L 811,594 L 812,594 L 814,596 L 815,596 L 817,598 L 818,598 L 820,600 L 821,600 L 822,601 L 823,601 L 824,602 L 825,602 L 826,603 L 827,603 L 829,605 L 830,605 L 831,606 L 832,606 L 833,607 L 834,607 L 834,606 L 831,603 L 831,602 L 828,599 L 828,598 L 827,598 L 802,573 L 801,573 L 793,565 L 792,565 L 786,559 L 785,559 L 781,555 L 780,555 L 776,551 L 775,551 L 772,548 Z" fill="gold" stroke="black" stroke-width="1"/><path d="M 440,529 L 438,531 L 437,531 L 435,533 L 434,533 L 432,535 L 431,535 L 429,537 L 428,537 L 425,540 L 424,540 L 421,543 L 420,543 L 418,545 L 417,545 L 414,548 L 413,548 L 410,551 L 409,551 L 405,555 L 404,555 L 401,558 L 400,558 L 394,564 L 393,564 L 383,574 L 383,575 L 384,575 L 385,574 L 387,574 L 388,573 L 390,573 L 391,572 L 392,572 L 393,571 L 394,571 L 396,569 L 398,569 L 399,568 L 401,568 L 403,566 L 404,566 L 405,565 L 407,565 L 409,563 L 410,563 L 411,562 L 412,562 L 414,560 L 415,560 L 416,559 L 417,559 L 419,557 L 420,557 L 421,556 L 422,556 L 424,554 L 425,554 L 427,552 L 428,552 L 430,550 L 431,550 L 433,548 L 434,548 L 436,546 L 437,546 L 439,544 L 440,544 L 442,542 L 443,542 L 445,540 L 446,540 L 447,539 L 447,538 L 446,537 L 446,536 L 445,535 L 445,534 L 444,533 L 444,532 L 443,531 L 443,530 L 442,529 Z" fill="gold" stroke="black" stroke-width="1"/><path d="M 786,524 L 785,525 L 785,526 L 783,528 L 783,529 L 781,531 L 781,532 L 780,533 L 780,534 L 779,535 L 779,537 L 780,538 L 781,538 L 782,539 L 783,539 L 785,541 L 786,541 L 787,542 L 788,542 L 789,543 L 790,543 L 793,546 L 794,546 L 796,548 L 797,548 L 798,549 L 799,549 L 801,551 L 802,551 L 805,554 L 806,554 L 807,555 L 808,555 L 810,557 L 811,557 L 813,559 L 814,559 L 816,561 L 817,561 L 818,562 L 819,562 L 821,564 L 822,564 L 824,566 L 825,566 L 827,568 L 828,568 L 829,569 L 830,569 L 832,571 L 833,571 L 835,573 L 836,573 L 838,575 L 839,575 L 841,577 L 842,577 L 843,578 L 844,578 L 846,580 L 847,580 L 849,582 L 850,582 L 851,583 L 852,583 L 854,585 L 855,585 L 856,586 L 857,586 L 859,588 L 860,588 L 861,589 L 862,589 L 863,590 L 864,590 L 866,592 L 867,592 L 868,593 L 869,593 L 870,594 L 871,594 L 872,595 L 873,595 L 875,597 L 876,597 L 877,598 L 878,598 L 879,599 L 881,599 L 882,600 L 883,600 L 884,601 L 885,601 L 886,602 L 887,602 L 888,603 L 889,603 L 890,604 L 891,604 L 892,605 L 893,605 L 894,606 L 896,606 L 897,607 L 898,607 L 898,606 L 890,598 L 889,598 L 884,593 L 883,593 L 879,589 L 878,589 L 874,585 L 873,585 L 870,582 L 869,582 L 866,579 L 865,579 L 862,576 L 861,576 L 858,573 L 857,573 L 853,569 L 852,569 L 849,566 L 848,566 L 845,563 L 844,563 L 840,559 L 839,559 L 837,557 L 836,557 L 833,554 L 832,554 L 829,551 L 828,551 L 826,549 L 825,549 L 823,547 L 822,547 L 819,544 L 818,544 L 816,542 L 815,542 L 813,540 L 812,540 L 810,538 L 809,538 L 807,536 L 806,536 L 804,534 L 803,534 L 801,532 L 800,532 L 798,530 L 797,530 L 794,527 L 793,527 L 792,526 L 791,526 L 790,525 L 789,525 L 788,524 Z" fill="gold" stroke="black" stroke-width="1"/><path d="M 771,519 L 769,521 L 767,521 L 766,522 L 764,522 L 763,523 L 760,523 L 759,524 L 758,524 L 757,525 L 756,525 L 754,527 L 754,528 L 733,549 L 732,549 L 732,550 L 731,551 L 730,551 L 726,555 L 725,555 L 722,558 L 721,558 L 718,561 L 717,561 L 715,563 L 714,563 L 712,565 L 711,565 L 709,567 L 708,567 L 706,569 L 705,569 L 703,571 L 702,571 L 701,572 L 700,572 L 699,573 L 698,573 L 696,575 L 694,575 L 692,577 L 691,577 L 690,578 L 689,578 L 688,579 L 687,579 L 686,580 L 684,580 L 683,581 L 682,581 L 681,582 L 679,582 L 678,583 L 676,583 L 675,584 L 674,584 L 673,585 L 671,585 L 670,586 L 668,586 L 667,587 L 664,587 L 663,588 L 660,588 L 659,589 L 656,589 L 655,590 L 653,590 L 652,591 L 648,591 L 647,592 L 641,592 L 640,593 L 634,593 L 633,594 L 624,594 L 623,595 L 606,595 L 605,594 L 593,594 L 592,593 L 585,593 L 584,592 L 579,592 L 578,591 L 573,591 L 572,590 L 568,590 L 567,589 L 563,589 L 562,588 L 561,589 L 553,589 L 552,590 L 545,590 L 544,591 L 541,591 L 540,592 L 539,592 L 540,593 L 541,593 L 542,594 L 543,594 L 544,595 L 546,595 L 547,596 L 548,596 L 549,597 L 551,597 L 552,598 L 553,598 L 554,599 L 557,599 L 558,600 L 560,600 L 561,601 L 564,601 L 565,602 L 568,602 L 569,603 L 573,603 L 574,604 L 577,604 L 578,605 L 583,605 L 584,606 L 589,606 L 590,607 L 597,607 L 598,608 L 611,608 L 612,609 L 614,609 L 615,608 L 616,609 L 626,609 L 627,608 L 640,608 L 641,607 L 647,607 L 648,606 L 653,606 L 654,605 L 658,605 L 659,604 L 662,604 L 663,603 L 666,603 L 667,602 L 670,602 L 671,601 L 673,601 L 674,600 L 676,600 L 677,599 L 679,599 L 680,598 L 682,598 L 683,597 L 684,597 L 685,596 L 687,596 L 688,595 L 689,595 L 690,594 L 691,594 L 692,593 L 693,593 L 694,592 L 695,592 L 696,591 L 697,591 L 698,590 L 700,590 L 702,588 L 704,588 L 706,586 L 707,586 L 708,585 L 709,585 L 710,584 L 711,584 L 713,582 L 714,582 L 716,580 L 717,580 L 719,578 L 720,578 L 721,577 L 722,577 L 725,574 L 726,574 L 730,570 L 731,570 L 733,568 L 734,568 L 744,558 L 745,558 L 746,557 L 746,556 L 756,546 L 756,545 L 760,541 L 760,540 L 763,537 L 763,536 L 765,534 L 765,533 L 768,530 L 768,529 L 770,527 L 770,526 L 772,524 L 772,523 L 774,521 L 774,519 Z" fill="gold" stroke="black" stroke-width="1"/><path d="M 429,507 L 428,508 L 427,508 L 426,509 L 425,509 L 424,510 L 423,510 L 422,511 L 421,511 L 420,512 L 419,512 L 418,513 L 417,513 L 415,515 L 414,515 L 413,516 L 412,516 L 411,517 L 410,517 L 409,518 L 408,518 L 407,519 L 406,519 L 404,521 L 403,521 L 402,522 L 401,522 L 400,523 L 399,523 L 397,525 L 396,525 L 395,526 L 394,526 L 392,528 L 391,528 L 390,529 L 389,529 L 387,531 L 386,531 L 384,533 L 383,533 L 382,534 L 381,534 L 378,537 L 377,537 L 375,539 L 374,539 L 372,541 L 371,541 L 369,543 L 368,543 L 366,545 L 366,546 L 368,546 L 369,545 L 372,545 L 373,544 L 374,544 L 375,543 L 378,543 L 379,542 L 381,542 L 382,541 L 383,541 L 384,540 L 387,540 L 388,539 L 390,539 L 391,538 L 392,538 L 393,537 L 395,537 L 396,536 L 398,536 L 399,535 L 400,535 L 401,534 L 403,534 L 404,533 L 405,533 L 406,532 L 407,532 L 408,531 L 410,531 L 411,530 L 413,530 L 414,529 L 415,529 L 416,528 L 417,528 L 418,527 L 419,527 L 420,526 L 421,526 L 422,525 L 424,525 L 425,524 L 426,524 L 427,523 L 428,523 L 429,522 L 430,522 L 431,521 L 433,521 L 434,520 L 435,520 L 436,519 L 436,517 L 435,516 L 435,515 L 434,514 L 434,513 L 433,512 L 433,510 L 430,507 Z" fill="gold" stroke="black" stroke-width="1"/><path d="M 801,502 L 799,504 L 799,505 L 797,507 L 797,508 L 796,509 L 796,510 L 795,511 L 795,512 L 794,513 L 794,514 L 795,514 L 797,516 L 798,516 L 799,517 L 801,517 L 802,518 L 803,518 L 804,519 L 805,519 L 806,520 L 807,520 L 808,521 L 810,521 L 811,522 L 813,522 L 815,524 L 817,524 L 818,525 L 819,525 L 820,526 L 822,526 L 823,527 L 824,527 L 825,528 L 826,528 L 827,529 L 829,529 L 830,530 L 832,530 L 833,531 L 834,531 L 835,532 L 837,532 L 838,533 L 840,533 L 841,534 L 843,534 L 844,535 L 846,535 L 847,536 L 848,536 L 849,537 L 852,537 L 853,538 L 855,538 L 856,539 L 858,539 L 859,540 L 861,540 L 862,541 L 865,541 L 866,542 L 868,542 L 869,543 L 870,542 L 868,540 L 867,540 L 865,538 L 864,538 L 861,535 L 860,535 L 859,534 L 858,534 L 856,532 L 855,532 L 854,531 L 853,531 L 851,529 L 850,529 L 849,528 L 848,528 L 846,526 L 845,526 L 844,525 L 843,525 L 841,523 L 840,523 L 838,521 L 836,521 L 834,519 L 833,519 L 832,518 L 831,518 L 829,516 L 828,516 L 827,515 L 826,515 L 825,514 L 824,514 L 822,512 L 821,512 L 820,511 L 819,511 L 818,510 L 817,510 L 816,509 L 815,509 L 814,508 L 813,508 L 812,507 L 811,507 L 810,506 L 809,506 L 808,505 L 807,505 L 806,504 L 805,504 L 804,503 L 803,503 L 802,502 Z" fill="gold" stroke="black" stroke-width="1"/><path d="M 846,478 L 845,479 L 843,479 L 842,480 L 841,480 L 840,481 L 839,481 L 838,482 L 836,482 L 835,483 L 832,483 L 830,485 L 829,485 L 829,486 L 830,487 L 833,487 L 834,488 L 837,488 L 838,489 L 841,489 L 842,490 L 844,490 L 845,491 L 848,491 L 849,492 L 852,492 L 853,493 L 856,493 L 857,494 L 859,494 L 860,495 L 864,495 L 865,496 L 867,496 L 868,497 L 872,497 L 873,498 L 875,498 L 876,499 L 880,499 L 881,500 L 884,500 L 885,501 L 888,501 L 889,502 L 892,502 L 893,503 L 897,503 L 898,504 L 902,504 L 903,505 L 907,505 L 908,506 L 912,506 L 913,507 L 918,507 L 919,508 L 924,508 L 925,509 L 930,509 L 931,510 L 935,510 L 935,509 L 934,508 L 933,508 L 932,507 L 931,507 L 930,506 L 929,506 L 928,505 L 927,505 L 926,504 L 924,504 L 923,503 L 921,503 L 920,502 L 919,502 L 918,501 L 916,501 L 915,500 L 913,500 L 912,499 L 910,499 L 909,498 L 908,498 L 907,497 L 905,497 L 904,496 L 902,496 L 901,495 L 899,495 L 898,494 L 897,494 L 896,493 L 894,493 L 893,492 L 891,492 L 890,491 L 888,491 L 887,490 L 885,490 L 884,489 L 883,489 L 882,488 L 879,488 L 878,487 L 877,487 L 876,486 L 874,486 L 873,485 L 871,485 L 870,484 L 867,484 L 866,483 L 864,483 L 863,482 L 861,482 L 860,481 L 859,481 L 858,480 L 855,480 L 854,479 L 852,479 L 851,478 Z" fill="gold" stroke="black" stroke-width="1"/><path d="M 411,462 L 410,463 L 407,463 L 406,464 L 403,464 L 402,465 L 399,465 L 398,466 L 395,466 L 394,467 L 391,467 L 390,468 L 388,468 L 387,469 L 384,469 L 383,470 L 381,470 L 380,471 L 377,471 L 376,472 L 374,472 L 373,473 L 370,473 L 369,474 L 367,474 L 366,475 L 363,475 L 362,476 L 360,476 L 359,477 L 357,477 L 356,478 L 354,478 L 353,479 L 351,479 L 350,480 L 347,480 L 346,481 L 345,481 L 344,482 L 341,482 L 340,483 L 338,483 L 337,484 L 335,484 L 334,485 L 332,485 L 331,486 L 329,486 L 328,487 L 326,487 L 325,488 L 324,488 L 323,489 L 321,489 L 320,490 L 318,490 L 317,491 L 316,491 L 315,492 L 313,492 L 312,493 L 310,493 L 309,494 L 308,494 L 307,495 L 306,495 L 305,496 L 303,496 L 302,497 L 301,497 L 300,498 L 298,498 L 297,499 L 296,499 L 295,500 L 294,500 L 293,501 L 292,501 L 291,502 L 290,502 L 289,503 L 288,503 L 287,504 L 286,504 L 285,505 L 284,505 L 283,506 L 284,507 L 285,507 L 286,506 L 291,506 L 292,505 L 296,505 L 297,504 L 302,504 L 303,503 L 306,503 L 307,502 L 312,502 L 313,501 L 316,501 L 317,500 L 320,500 L 321,499 L 326,499 L 327,498 L 329,498 L 330,497 L 333,497 L 334,496 L 338,496 L 339,495 L 341,495 L 342,494 L 345,494 L 346,493 L 349,493 L 350,492 L 352,492 L 353,491 L 356,491 L 357,490 L 360,490 L 361,489 L 365,489 L 366,488 L 368,488 L 369,487 L 371,487 L 372,486 L 375,486 L 376,485 L 379,485 L 380,484 L 382,484 L 383,483 L 385,483 L 386,482 L 389,482 L 390,481 L 393,481 L 394,480 L 396,480 L 397,479 L 399,479 L 400,478 L 403,478 L 404,477 L 406,477 L 407,476 L 409,476 L 410,475 L 412,475 L 413,474 L 414,474 L 415,473 L 414,472 L 414,468 L 413,467 L 413,464 L 412,463 L 412,462 Z" fill="gold" stroke="black" stroke-width="1"/><path d="M 397,437 L 396,438 L 387,438 L 386,439 L 379,439 L 378,440 L 372,440 L 371,441 L 365,441 L 364,442 L 360,442 L 359,443 L 354,443 L 353,444 L 348,444 L 347,445 L 343,445 L 342,446 L 339,446 L 338,447 L 335,447 L 334,448 L 332,448 L 331,449 L 329,449 L 328,450 L 326,450 L 326,451 L 332,451 L 333,452 L 334,452 L 335,451 L 336,452 L 377,452 L 378,451 L 403,451 L 404,450 L 409,450 L 410,449 L 410,448 L 409,447 L 409,438 L 408,437 Z" fill="gold" stroke="black" stroke-width="1"/><path d="M 812,434 L 811,435 L 811,436 L 810,437 L 810,443 L 816,443 L 817,444 L 846,444 L 847,443 L 857,443 L 858,442 L 860,442 L 861,441 L 863,441 L 865,439 L 864,439 L 863,438 L 855,438 L 854,437 L 844,437 L 843,436 L 831,436 L 830,435 L 819,435 L 818,434 Z" fill="gold" stroke="black" stroke-width="1"/><path d="M 372,404 L 371,405 L 334,405 L 333,406 L 332,405 L 331,406 L 311,406 L 310,407 L 295,407 L 294,408 L 284,408 L 283,409 L 275,409 L 274,410 L 268,410 L 267,411 L 261,411 L 260,412 L 258,412 L 257,413 L 255,413 L 255,414 L 258,414 L 259,415 L 267,415 L 268,416 L 277,416 L 278,417 L 289,417 L 290,418 L 306,418 L 307,419 L 336,419 L 337,420 L 408,420 L 409,419 L 409,406 L 408,405 L 381,405 L 380,404 L 379,405 L 376,405 L 375,404 L 374,405 L 373,405 Z" fill="gold" stroke="black" stroke-width="1"/><path d="M 813,403 L 812,404 L 812,415 L 813,416 L 832,416 L 833,415 L 860,415 L 861,414 L 875,414 L 876,413 L 887,413 L 888,412 L 896,412 L 897,411 L 901,411 L 901,410 L 900,409 L 894,409 L 893,408 L 888,408 L 887,407 L 879,407 L 878,406 L 870,406 L 869,405 L 857,405 L 856,404 L 829,404 L 828,403 L 827,404 L 826,404 L 825,403 L 824,404 L 823,404 L 822,403 L 820,403 L 819,404 L 818,403 Z" fill="gold" stroke="black" stroke-width="1"/><path d="M 853,371 L 852,372 L 837,372 L 836,373 L 827,373 L 826,374 L 817,374 L 816,375 L 812,375 L 811,376 L 811,380 L 812,381 L 811,382 L 812,383 L 812,387 L 818,387 L 819,386 L 825,386 L 826,385 L 831,385 L 832,384 L 836,384 L 837,383 L 841,383 L 842,382 L 846,382 L 847,381 L 850,381 L 851,380 L 855,380 L 856,379 L 859,379 L 860,378 L 864,378 L 865,377 L 868,377 L 869,376 L 871,376 L 872,375 L 875,375 L 876,374 L 879,374 L 880,373 L 882,373 L 883,372 L 884,372 L 885,371 Z" fill="gold" stroke="black" stroke-width="1"/><path d="M 324,368 L 324,370 L 326,370 L 327,371 L 329,371 L 330,372 L 331,372 L 332,373 L 334,373 L 335,374 L 337,374 L 338,375 L 340,375 L 341,376 L 344,376 L 345,377 L 347,377 L 348,378 L 350,378 L 351,379 L 354,379 L 355,380 L 357,380 L 358,381 L 361,381 L 362,382 L 365,382 L 366,383 L 369,383 L 370,384 L 374,384 L 375,385 L 378,385 L 379,386 L 382,386 L 383,387 L 386,387 L 387,388 L 391,388 L 392,389 L 395,389 L 396,390 L 399,390 L 400,391 L 404,391 L 405,392 L 408,392 L 409,393 L 410,392 L 410,391 L 411,390 L 411,386 L 412,385 L 412,377 L 406,377 L 405,376 L 397,376 L 396,375 L 391,375 L 390,374 L 384,374 L 383,373 L 377,373 L 376,372 L 368,372 L 367,371 L 359,371 L 358,370 L 347,370 L 346,369 L 332,369 L 331,368 Z" fill="gold" stroke="black" stroke-width="1"/><path d="M 887,335 L 886,336 L 871,336 L 870,337 L 861,337 L 860,338 L 853,338 L 852,339 L 846,339 L 845,340 L 840,340 L 839,341 L 835,341 L 834,342 L 830,342 L 829,343 L 825,343 L 824,344 L 822,344 L 821,345 L 818,345 L 817,346 L 814,346 L 813,347 L 810,347 L 809,348 L 806,348 L 805,349 L 804,349 L 804,350 L 805,351 L 805,354 L 806,355 L 806,357 L 807,358 L 807,360 L 808,361 L 814,361 L 815,360 L 820,360 L 821,359 L 824,359 L 825,358 L 830,358 L 831,357 L 838,357 L 839,356 L 845,356 L 846,355 L 854,355 L 855,354 L 864,354 L 865,353 L 877,353 L 878,352 L 912,352 L 913,353 L 921,353 L 922,354 L 928,354 L 929,355 L 934,355 L 935,356 L 938,356 L 939,357 L 941,357 L 942,358 L 944,358 L 945,359 L 946,359 L 947,360 L 948,360 L 949,361 L 950,361 L 951,362 L 952,362 L 957,367 L 957,368 L 958,369 L 958,377 L 957,378 L 957,379 L 956,380 L 956,381 L 955,382 L 955,383 L 951,387 L 951,388 L 946,393 L 945,393 L 945,394 L 944,395 L 943,395 L 939,399 L 938,399 L 936,401 L 935,401 L 931,405 L 930,405 L 928,407 L 927,407 L 925,409 L 924,409 L 922,411 L 921,411 L 919,413 L 918,413 L 917,414 L 916,414 L 914,416 L 913,416 L 912,417 L 911,417 L 909,419 L 908,419 L 907,420 L 906,420 L 905,421 L 904,421 L 902,423 L 901,423 L 900,424 L 899,424 L 898,425 L 897,425 L 896,426 L 895,426 L 894,427 L 893,427 L 892,428 L 891,428 L 890,429 L 889,429 L 887,431 L 886,431 L 885,432 L 884,432 L 883,433 L 882,433 L 880,435 L 879,435 L 878,436 L 877,436 L 876,437 L 875,437 L 874,438 L 873,438 L 872,439 L 871,439 L 870,440 L 869,440 L 868,441 L 867,441 L 865,443 L 864,443 L 863,444 L 862,444 L 861,445 L 860,445 L 859,446 L 858,446 L 857,447 L 856,447 L 855,448 L 854,448 L 853,449 L 852,449 L 851,450 L 850,450 L 849,451 L 848,451 L 847,452 L 846,452 L 845,453 L 844,453 L 843,454 L 842,454 L 841,455 L 840,455 L 838,457 L 836,457 L 834,459 L 832,459 L 830,461 L 828,461 L 826,463 L 825,463 L 824,464 L 823,464 L 822,465 L 821,465 L 820,466 L 819,466 L 818,467 L 817,467 L 816,468 L 815,468 L 814,469 L 813,469 L 812,470 L 811,470 L 810,471 L 809,471 L 807,473 L 806,473 L 805,474 L 804,474 L 803,475 L 802,475 L 801,476 L 800,476 L 799,477 L 797,477 L 795,479 L 794,479 L 793,480 L 792,480 L 791,481 L 790,481 L 789,482 L 788,482 L 787,483 L 786,483 L 785,484 L 784,484 L 783,485 L 782,485 L 781,486 L 780,486 L 779,487 L 778,487 L 777,488 L 776,488 L 775,489 L 773,489 L 772,490 L 771,490 L 770,491 L 769,491 L 768,492 L 767,492 L 766,493 L 765,493 L 764,494 L 763,494 L 762,495 L 761,495 L 760,496 L 759,496 L 758,497 L 757,497 L 756,498 L 755,498 L 754,499 L 753,499 L 752,500 L 751,500 L 750,501 L 748,501 L 747,502 L 746,502 L 745,503 L 744,503 L 743,504 L 742,504 L 741,505 L 739,505 L 737,507 L 735,507 L 734,508 L 733,508 L 732,509 L 731,509 L 730,510 L 728,510 L 727,511 L 726,511 L 725,512 L 724,512 L 723,513 L 721,513 L 720,514 L 719,514 L 718,515 L 716,515 L 715,516 L 714,516 L 713,517 L 711,517 L 710,518 L 709,518 L 708,519 L 707,519 L 706,520 L 704,520 L 703,521 L 702,521 L 701,522 L 700,522 L 699,523 L 697,523 L 696,524 L 695,524 L 694,525 L 692,525 L 691,526 L 690,526 L 689,527 L 687,527 L 686,528 L 684,528 L 683,529 L 681,529 L 680,530 L 679,530 L 678,531 L 676,531 L 675,532 L 673,532 L 672,533 L 671,533 L 670,534 L 668,534 L 667,535 L 665,535 L 664,536 L 662,536 L 661,537 L 659,537 L 658,538 L 656,538 L 655,539 L 653,539 L 652,540 L 650,540 L 649,541 L 647,541 L 646,542 L 644,542 L 643,543 L 640,543 L 639,544 L 637,544 L 636,545 L 634,545 L 633,546 L 631,546 L 630,547 L 627,547 L 626,548 L 623,548 L 622,549 L 620,549 L 619,550 L 616,550 L 615,551 L 613,551 L 612,552 L 608,552 L 607,553 L 604,553 L 603,554 L 600,554 L 599,555 L 596,555 L 595,556 L 591,556 L 590,557 L 587,557 L 586,558 L 583,558 L 582,559 L 579,559 L 578,560 L 574,560 L 573,561 L 570,561 L 569,562 L 564,562 L 563,563 L 560,563 L 559,564 L 554,564 L 553,565 L 550,565 L 549,566 L 544,566 L 543,567 L 539,567 L 538,568 L 532,568 L 531,569 L 527,569 L 526,570 L 521,570 L 520,571 L 514,571 L 513,572 L 508,572 L 507,573 L 502,573 L 501,574 L 493,574 L 492,575 L 484,575 L 483,576 L 475,576 L 474,577 L 466,577 L 465,578 L 457,578 L 456,579 L 446,579 L 445,580 L 431,580 L 430,581 L 413,581 L 412,582 L 383,582 L 382,581 L 369,581 L 368,580 L 363,580 L 362,579 L 358,579 L 357,578 L 354,578 L 353,577 L 351,577 L 350,576 L 347,576 L 345,574 L 343,574 L 341,572 L 340,572 L 338,570 L 337,570 L 335,568 L 335,567 L 333,565 L 333,562 L 332,561 L 332,559 L 333,558 L 333,555 L 334,554 L 334,553 L 335,552 L 335,551 L 338,548 L 338,547 L 345,540 L 346,540 L 350,536 L 351,536 L 353,534 L 354,534 L 357,531 L 358,531 L 359,530 L 360,530 L 361,529 L 362,529 L 364,527 L 365,527 L 366,526 L 367,526 L 368,525 L 369,525 L 371,523 L 372,523 L 373,522 L 374,522 L 375,521 L 376,521 L 377,520 L 378,520 L 380,518 L 382,518 L 383,517 L 384,517 L 385,516 L 386,516 L 388,514 L 389,514 L 390,513 L 391,513 L 392,512 L 394,512 L 396,510 L 398,510 L 400,508 L 402,508 L 404,506 L 405,506 L 406,505 L 407,505 L 408,504 L 409,504 L 410,503 L 411,503 L 412,502 L 413,502 L 414,501 L 415,501 L 416,500 L 417,500 L 418,499 L 419,499 L 420,498 L 421,498 L 422,497 L 423,497 L 423,493 L 422,492 L 422,491 L 421,490 L 421,489 L 419,487 L 419,486 L 416,486 L 415,487 L 413,487 L 412,488 L 411,488 L 410,489 L 409,489 L 408,490 L 407,490 L 406,491 L 405,491 L 404,492 L 403,492 L 402,493 L 400,493 L 398,495 L 397,495 L 396,496 L 395,496 L 394,497 L 393,497 L 392,498 L 390,498 L 388,500 L 387,500 L 386,501 L 385,501 L 384,502 L 383,502 L 382,503 L 381,503 L 380,504 L 379,504 L 378,505 L 377,505 L 376,506 L 375,506 L 374,507 L 373,507 L 372,508 L 371,508 L 370,509 L 369,509 L 367,511 L 366,511 L 365,512 L 364,512 L 363,513 L 362,513 L 360,515 L 359,515 L 358,516 L 357,516 L 355,518 L 354,518 L 353,519 L 352,519 L 350,521 L 349,521 L 348,522 L 347,522 L 346,523 L 345,523 L 343,525 L 342,525 L 340,527 L 339,527 L 337,529 L 336,529 L 333,532 L 332,532 L 331,533 L 330,533 L 326,537 L 325,537 L 315,547 L 315,548 L 311,552 L 311,553 L 310,554 L 310,555 L 309,556 L 309,558 L 308,559 L 308,561 L 307,562 L 307,571 L 308,572 L 308,574 L 309,575 L 309,576 L 310,577 L 310,578 L 318,586 L 319,586 L 320,587 L 321,587 L 322,588 L 323,588 L 324,589 L 325,589 L 326,590 L 327,590 L 328,591 L 330,591 L 331,592 L 334,592 L 335,593 L 337,593 L 338,594 L 341,594 L 342,595 L 346,595 L 347,596 L 351,596 L 352,597 L 359,597 L 360,598 L 369,598 L 370,599 L 421,599 L 422,598 L 437,598 L 438,597 L 448,597 L 449,596 L 459,596 L 460,595 L 469,595 L 470,594 L 477,594 L 478,593 L 485,593 L 486,592 L 491,592 L 492,591 L 493,592 L 494,591 L 498,591 L 499,590 L 504,590 L 505,589 L 510,589 L 511,588 L 517,588 L 518,587 L 523,587 L 524,586 L 529,586 L 530,585 L 534,585 L 535,584 L 540,584 L 541,583 L 545,583 L 546,582 L 550,582 L 551,581 L 555,581 L 556,580 L 560,580 L 561,579 L 565,579 L 566,578 L 570,578 L 571,577 L 574,577 L 575,576 L 579,576 L 580,575 L 583,575 L 584,574 L 587,574 L 588,573 L 591,573 L 592,572 L 595,572 L 596,571 L 599,571 L 600,570 L 603,570 L 604,569 L 607,569 L 608,568 L 612,568 L 613,567 L 615,567 L 616,566 L 619,566 L 620,565 L 622,565 L 623,564 L 626,564 L 627,563 L 630,563 L 631,562 L 633,562 L 634,561 L 636,561 L 637,560 L 640,560 L 641,559 L 643,559 L 644,558 L 646,558 L 647,557 L 649,557 L 650,556 L 652,556 L 653,555 L 655,555 L 656,554 L 658,554 L 659,553 L 661,553 L 662,552 L 664,552 L 665,551 L 667,551 L 668,550 L 670,550 L 671,549 L 673,549 L 674,548 L 676,548 L 677,547 L 678,547 L 679,546 L 681,546 L 682,545 L 684,545 L 685,544 L 686,544 L 687,543 L 689,543 L 690,542 L 691,542 L 692,541 L 694,541 L 695,540 L 696,540 L 697,539 L 698,539 L 699,538 L 701,538 L 702,537 L 703,537 L 704,536 L 706,536 L 707,535 L 708,535 L 709,534 L 710,534 L 711,533 L 712,533 L 713,532 L 715,532 L 716,531 L 717,531 L 718,530 L 720,530 L 722,528 L 724,528 L 725,527 L 726,527 L 727,526 L 728,526 L 729,525 L 730,525 L 731,524 L 732,524 L 733,523 L 734,523 L 735,522 L 736,522 L 737,521 L 739,521 L 740,520 L 741,520 L 742,519 L 743,519 L 744,518 L 745,518 L 746,517 L 747,517 L 748,516 L 750,516 L 752,514 L 754,514 L 756,512 L 758,512 L 759,511 L 760,511 L 761,510 L 762,510 L 763,509 L 764,509 L 765,508 L 766,508 L 767,507 L 768,507 L 769,506 L 770,506 L 771,505 L 772,505 L 773,504 L 774,504 L 775,503 L 777,503 L 778,502 L 779,502 L 780,501 L 781,501 L 782,500 L 783,500 L 784,499 L 785,499 L 786,498 L 787,498 L 788,497 L 789,497 L 790,496 L 791,496 L 792,495 L 793,495 L 794,494 L 795,494 L 796,493 L 797,493 L 798,492 L 799,492 L 800,491 L 801,491 L 802,490 L 803,490 L 804,489 L 805,489 L 806,488 L 808,488 L 810,486 L 812,486 L 813,485 L 814,485 L 815,484 L 816,484 L 817,483 L 818,483 L 819,482 L 820,482 L 822,480 L 824,480 L 826,478 L 827,478 L 828,477 L 829,477 L 830,476 L 831,476 L 832,475 L 833,475 L 834,474 L 835,474 L 836,473 L 837,473 L 838,472 L 839,472 L 840,471 L 841,471 L 842,470 L 844,470 L 846,468 L 847,468 L 848,467 L 850,467 L 852,465 L 853,465 L 854,464 L 856,464 L 858,462 L 861,462 L 863,460 L 864,460 L 865,459 L 866,459 L 867,458 L 868,458 L 869,457 L 870,457 L 871,456 L 872,456 L 874,454 L 876,454 L 877,453 L 878,453 L 879,452 L 880,452 L 882,450 L 883,450 L 884,449 L 885,449 L 886,448 L 887,448 L 888,447 L 889,447 L 890,446 L 891,446 L 892,445 L 893,445 L 895,443 L 896,443 L 897,442 L 898,442 L 899,441 L 900,441 L 901,440 L 902,440 L 903,439 L 904,439 L 905,438 L 906,438 L 907,437 L 908,437 L 910,435 L 911,435 L 912,434 L 913,434 L 915,432 L 916,432 L 917,431 L 918,431 L 919,430 L 920,430 L 922,428 L 923,428 L 925,426 L 926,426 L 927,425 L 928,425 L 929,424 L 930,424 L 932,422 L 933,422 L 935,420 L 936,420 L 938,418 L 939,418 L 941,416 L 942,416 L 943,415 L 944,415 L 946,413 L 947,413 L 949,411 L 950,411 L 953,408 L 954,408 L 956,406 L 957,406 L 961,402 L 962,402 L 976,388 L 976,387 L 979,384 L 979,383 L 981,381 L 981,379 L 983,377 L 983,375 L 984,374 L 984,363 L 983,362 L 983,361 L 982,360 L 982,359 L 981,358 L 981,357 L 976,352 L 975,352 L 973,350 L 972,350 L 970,348 L 969,348 L 968,347 L 967,347 L 966,346 L 964,346 L 963,345 L 962,345 L 961,344 L 959,344 L 958,343 L 957,343 L 956,342 L 954,342 L 953,341 L 950,341 L 949,340 L 946,340 L 945,339 L 941,339 L 940,338 L 934,338 L 933,337 L 924,337 L 923,336 L 906,336 L 905,335 L 891,335 L 890,336 L 889,335 Z" fill="gold" stroke="black" stroke-width="1"/><path d="M 280,317 L 279,318 L 280,318 L 281,319 L 282,319 L 283,320 L 284,320 L 285,321 L 286,321 L 287,322 L 289,322 L 290,323 L 291,323 L 292,324 L 294,324 L 295,325 L 297,325 L 298,326 L 300,326 L 301,327 L 302,327 L 303,328 L 305,328 L 306,329 L 308,329 L 309,330 L 311,330 L 312,331 L 314,331 L 315,332 L 317,332 L 318,333 L 320,333 L 321,334 L 322,334 L 323,335 L 325,335 L 326,336 L 328,336 L 329,337 L 331,337 L 332,338 L 334,338 L 335,339 L 337,339 L 338,340 L 340,340 L 341,341 L 343,341 L 344,342 L 346,342 L 347,343 L 349,343 L 350,344 L 352,344 L 353,345 L 355,345 L 356,346 L 359,346 L 360,347 L 362,347 L 363,348 L 365,348 L 366,349 L 368,349 L 369,350 L 371,350 L 372,351 L 374,351 L 375,352 L 378,352 L 379,353 L 381,353 L 382,354 L 384,354 L 385,355 L 387,355 L 388,356 L 391,356 L 392,357 L 394,357 L 395,358 L 397,358 L 398,359 L 399,359 L 400,360 L 403,360 L 404,361 L 406,361 L 407,362 L 410,362 L 411,363 L 413,363 L 414,364 L 415,364 L 415,363 L 416,362 L 416,361 L 417,360 L 417,357 L 418,356 L 418,355 L 419,354 L 419,350 L 418,350 L 417,349 L 415,349 L 414,348 L 412,348 L 411,347 L 409,347 L 408,346 L 406,346 L 405,345 L 403,345 L 402,344 L 400,344 L 399,343 L 396,343 L 395,342 L 393,342 L 392,341 L 389,341 L 388,340 L 386,340 L 385,339 L 383,339 L 382,338 L 379,338 L 378,337 L 375,337 L 374,336 L 372,336 L 371,335 L 368,335 L 367,334 L 365,334 L 364,333 L 360,333 L 359,332 L 356,332 L 355,331 L 352,331 L 351,330 L 348,330 L 347,329 L 344,329 L 343,328 L 339,328 L 338,327 L 335,327 L 334,326 L 329,326 L 328,325 L 325,325 L 324,324 L 320,324 L 319,323 L 315,323 L 314,322 L 310,322 L 309,321 L 305,321 L 304,320 L 299,320 L 298,319 L 292,319 L 291,318 L 285,318 L 284,317 Z" fill="gold" stroke="black" stroke-width="1"/><path d="M 554,311 L 553,312 L 546,312 L 545,313 L 541,313 L 540,314 L 537,314 L 536,315 L 533,315 L 532,316 L 530,316 L 529,317 L 527,317 L 526,318 L 524,318 L 523,319 L 522,319 L 521,320 L 520,320 L 519,321 L 518,321 L 517,322 L 516,322 L 515,323 L 514,323 L 512,325 L 511,325 L 510,326 L 509,326 L 508,327 L 507,327 L 505,329 L 504,329 L 501,332 L 500,332 L 498,334 L 497,334 L 492,339 L 492,341 L 493,342 L 493,343 L 495,345 L 495,346 L 496,347 L 496,348 L 497,349 L 497,350 L 498,351 L 498,352 L 500,354 L 500,355 L 501,356 L 501,357 L 502,358 L 502,359 L 503,360 L 503,361 L 505,363 L 505,364 L 506,365 L 506,366 L 507,367 L 507,368 L 508,369 L 508,370 L 509,371 L 509,372 L 511,374 L 511,375 L 513,377 L 514,377 L 519,372 L 520,372 L 523,369 L 524,369 L 527,366 L 528,366 L 530,364 L 531,364 L 532,363 L 533,363 L 534,362 L 535,362 L 536,361 L 537,361 L 538,360 L 539,360 L 540,359 L 541,359 L 542,358 L 544,358 L 545,357 L 546,357 L 547,356 L 550,356 L 551,355 L 556,355 L 557,354 L 565,354 L 566,353 L 567,354 L 578,354 L 579,355 L 582,355 L 583,356 L 584,356 L 585,357 L 586,357 L 592,363 L 592,364 L 594,366 L 594,368 L 595,369 L 595,376 L 594,377 L 594,379 L 593,380 L 593,381 L 592,382 L 592,383 L 591,384 L 591,385 L 587,389 L 586,389 L 584,391 L 583,391 L 582,392 L 581,392 L 580,393 L 579,393 L 578,394 L 576,394 L 575,395 L 572,395 L 571,396 L 567,396 L 566,397 L 554,397 L 553,398 L 552,397 L 551,398 L 535,398 L 535,402 L 536,403 L 536,404 L 537,405 L 537,407 L 538,408 L 538,410 L 539,411 L 539,413 L 540,414 L 540,415 L 541,416 L 541,418 L 542,419 L 542,421 L 543,422 L 543,424 L 544,425 L 544,427 L 545,428 L 545,430 L 546,431 L 546,433 L 547,434 L 547,436 L 548,437 L 548,439 L 550,441 L 552,441 L 553,440 L 561,440 L 562,439 L 578,439 L 579,440 L 583,440 L 584,441 L 585,441 L 586,442 L 588,442 L 590,444 L 591,444 L 596,449 L 596,450 L 598,452 L 598,453 L 599,454 L 599,455 L 600,456 L 600,459 L 601,460 L 601,472 L 600,473 L 600,475 L 599,476 L 599,478 L 598,479 L 598,480 L 596,482 L 596,483 L 587,492 L 586,492 L 585,493 L 584,493 L 583,494 L 582,494 L 581,495 L 580,495 L 579,496 L 577,496 L 576,497 L 574,497 L 573,498 L 569,498 L 568,499 L 561,499 L 560,500 L 551,500 L 550,499 L 549,500 L 548,499 L 541,499 L 540,498 L 537,498 L 536,497 L 533,497 L 532,496 L 530,496 L 529,495 L 527,495 L 526,494 L 525,494 L 524,493 L 523,493 L 522,492 L 521,492 L 520,491 L 519,491 L 518,490 L 517,490 L 515,488 L 514,488 L 510,484 L 509,484 L 497,472 L 497,471 L 494,468 L 494,467 L 492,465 L 492,464 L 490,462 L 490,461 L 489,460 L 489,459 L 487,457 L 487,456 L 486,455 L 486,454 L 485,453 L 485,452 L 484,451 L 484,450 L 483,449 L 483,448 L 482,447 L 482,446 L 481,445 L 481,444 L 480,443 L 480,441 L 479,440 L 479,439 L 478,438 L 478,436 L 477,435 L 477,433 L 476,432 L 476,430 L 475,429 L 475,427 L 474,426 L 474,425 L 473,424 L 473,422 L 472,421 L 472,418 L 471,417 L 471,414 L 470,413 L 470,410 L 469,409 L 469,408 L 468,408 L 468,446 L 469,447 L 469,453 L 470,454 L 470,457 L 471,458 L 471,461 L 472,462 L 472,466 L 473,467 L 473,470 L 474,471 L 474,473 L 475,474 L 475,476 L 476,477 L 476,478 L 477,479 L 477,481 L 478,482 L 478,483 L 479,484 L 479,485 L 480,486 L 480,487 L 481,488 L 481,489 L 482,490 L 482,491 L 483,492 L 483,493 L 485,495 L 485,496 L 486,497 L 486,498 L 488,500 L 488,501 L 491,504 L 491,505 L 495,509 L 495,510 L 505,520 L 506,520 L 509,523 L 510,523 L 513,526 L 514,526 L 516,528 L 517,528 L 518,529 L 519,529 L 521,531 L 522,531 L 523,532 L 525,532 L 526,533 L 527,533 L 528,534 L 529,534 L 530,535 L 531,535 L 532,536 L 534,536 L 535,537 L 538,537 L 539,538 L 542,538 L 543,539 L 546,539 L 547,540 L 551,540 L 552,541 L 573,541 L 574,540 L 580,540 L 581,539 L 584,539 L 585,538 L 587,538 L 588,537 L 590,537 L 591,536 L 592,536 L 593,535 L 594,535 L 595,534 L 597,534 L 599,532 L 600,532 L 601,531 L 602,531 L 603,530 L 604,530 L 606,528 L 607,528 L 611,524 L 612,524 L 612,523 L 613,522 L 614,522 L 614,521 L 615,520 L 616,520 L 616,519 L 619,516 L 619,515 L 622,512 L 622,511 L 623,510 L 623,509 L 624,508 L 624,507 L 625,506 L 625,505 L 626,504 L 626,503 L 627,502 L 627,500 L 628,499 L 628,496 L 629,495 L 629,490 L 630,489 L 630,469 L 629,468 L 629,465 L 628,464 L 628,461 L 627,460 L 627,458 L 626,457 L 626,455 L 625,454 L 625,453 L 624,452 L 624,450 L 622,448 L 622,447 L 621,446 L 621,445 L 619,443 L 619,442 L 617,440 L 617,439 L 618,438 L 619,438 L 620,439 L 623,439 L 624,440 L 628,440 L 629,441 L 646,441 L 647,440 L 651,440 L 652,439 L 654,439 L 655,438 L 657,438 L 658,437 L 659,437 L 660,436 L 661,436 L 663,434 L 664,434 L 665,433 L 666,433 L 673,426 L 673,425 L 676,422 L 676,421 L 677,420 L 677,419 L 678,418 L 678,417 L 680,415 L 680,414 L 682,412 L 682,411 L 683,410 L 683,409 L 684,408 L 684,407 L 686,405 L 686,404 L 687,403 L 687,402 L 689,400 L 689,399 L 692,396 L 692,395 L 693,394 L 694,394 L 694,393 L 699,388 L 700,388 L 702,386 L 703,386 L 704,385 L 705,385 L 706,384 L 707,384 L 708,383 L 714,383 L 715,382 L 716,383 L 722,383 L 723,384 L 724,384 L 725,385 L 726,385 L 727,386 L 728,386 L 736,394 L 736,395 L 737,396 L 737,397 L 738,398 L 738,400 L 739,401 L 739,403 L 740,404 L 740,406 L 741,407 L 741,412 L 742,413 L 742,430 L 741,431 L 741,436 L 740,437 L 740,440 L 739,441 L 739,443 L 738,444 L 738,445 L 737,446 L 737,448 L 735,450 L 735,452 L 733,454 L 733,455 L 730,458 L 730,459 L 721,468 L 720,468 L 718,470 L 717,470 L 716,471 L 715,471 L 714,472 L 713,472 L 712,473 L 711,473 L 710,474 L 708,474 L 707,475 L 705,475 L 704,476 L 699,476 L 698,477 L 684,477 L 683,476 L 680,476 L 679,475 L 676,475 L 675,474 L 674,474 L 673,473 L 672,473 L 670,471 L 669,471 L 663,465 L 663,464 L 661,462 L 661,461 L 660,460 L 660,459 L 659,458 L 659,456 L 658,455 L 658,453 L 657,452 L 657,449 L 656,448 L 655,448 L 654,449 L 654,451 L 653,452 L 653,454 L 652,455 L 652,457 L 651,458 L 651,462 L 650,463 L 650,477 L 651,478 L 651,482 L 652,483 L 652,484 L 653,485 L 653,487 L 654,488 L 654,489 L 655,490 L 655,491 L 657,493 L 657,494 L 659,496 L 659,497 L 665,503 L 666,503 L 668,505 L 669,505 L 670,506 L 671,506 L 673,508 L 674,508 L 675,509 L 677,509 L 678,510 L 680,510 L 681,511 L 684,511 L 685,512 L 691,512 L 692,513 L 693,512 L 694,513 L 698,513 L 699,512 L 707,512 L 708,511 L 711,511 L 712,510 L 714,510 L 715,509 L 717,509 L 718,508 L 720,508 L 721,507 L 722,507 L 723,506 L 724,506 L 725,505 L 726,505 L 728,503 L 729,503 L 731,501 L 732,501 L 735,498 L 736,498 L 742,492 L 742,491 L 743,490 L 744,490 L 744,489 L 747,486 L 747,485 L 748,484 L 748,483 L 749,482 L 749,481 L 751,479 L 751,478 L 752,477 L 752,476 L 753,475 L 753,474 L 754,473 L 754,471 L 755,470 L 755,469 L 756,468 L 756,465 L 757,464 L 757,462 L 758,461 L 758,459 L 759,458 L 759,454 L 760,453 L 760,449 L 761,448 L 761,440 L 762,439 L 762,418 L 761,417 L 761,410 L 760,409 L 760,405 L 759,404 L 759,400 L 758,399 L 758,397 L 757,396 L 757,394 L 756,393 L 756,391 L 755,390 L 755,388 L 754,387 L 754,386 L 753,385 L 753,384 L 752,383 L 752,382 L 751,381 L 751,380 L 750,379 L 750,378 L 748,376 L 748,375 L 745,372 L 745,371 L 738,364 L 737,364 L 733,360 L 732,360 L 730,358 L 728,358 L 726,356 L 724,356 L 723,355 L 722,355 L 721,354 L 718,354 L 717,353 L 715,353 L 714,352 L 693,352 L 692,353 L 688,353 L 687,354 L 685,354 L 684,355 L 682,355 L 681,356 L 680,356 L 679,357 L 678,357 L 677,358 L 676,358 L 675,359 L 674,359 L 673,360 L 672,360 L 670,362 L 669,362 L 666,365 L 665,365 L 661,369 L 660,369 L 660,370 L 652,378 L 652,379 L 650,381 L 650,382 L 648,384 L 648,385 L 646,387 L 646,388 L 645,389 L 645,390 L 643,392 L 643,393 L 642,394 L 642,395 L 641,396 L 641,397 L 639,399 L 639,400 L 637,402 L 637,403 L 634,406 L 634,407 L 626,415 L 625,415 L 623,417 L 622,417 L 621,418 L 620,418 L 619,419 L 617,419 L 616,420 L 612,420 L 611,421 L 599,421 L 598,420 L 594,420 L 593,419 L 589,419 L 588,418 L 587,418 L 586,417 L 588,415 L 589,415 L 591,413 L 592,413 L 593,412 L 594,412 L 596,410 L 597,410 L 601,406 L 602,406 L 606,402 L 606,401 L 607,400 L 608,400 L 608,399 L 609,398 L 609,397 L 612,394 L 612,393 L 613,392 L 613,391 L 614,390 L 614,389 L 615,388 L 615,387 L 616,386 L 616,383 L 617,382 L 617,380 L 618,379 L 618,371 L 619,370 L 619,364 L 618,363 L 618,355 L 617,354 L 617,351 L 616,350 L 616,348 L 615,347 L 615,346 L 614,345 L 614,344 L 613,343 L 613,342 L 612,341 L 612,340 L 611,339 L 611,338 L 609,336 L 609,335 L 606,332 L 606,331 L 605,331 L 604,330 L 604,329 L 603,329 L 597,323 L 596,323 L 593,320 L 592,320 L 591,319 L 590,319 L 589,318 L 588,318 L 587,317 L 586,317 L 585,316 L 583,316 L 582,315 L 580,315 L 579,314 L 577,314 L 576,313 L 572,313 L 571,312 L 565,312 L 564,311 Z" fill="gold" stroke="black" stroke-width="1"/><path d="M 354,302 L 357,305 L 358,305 L 359,306 L 360,306 L 362,308 L 363,308 L 364,309 L 365,309 L 366,310 L 367,310 L 369,312 L 370,312 L 371,313 L 372,313 L 373,314 L 374,314 L 376,316 L 377,316 L 378,317 L 380,317 L 381,318 L 382,318 L 383,319 L 384,319 L 386,321 L 387,321 L 388,322 L 389,322 L 390,323 L 391,323 L 392,324 L 393,324 L 394,325 L 395,325 L 396,326 L 397,326 L 398,327 L 399,327 L 400,328 L 401,328 L 402,329 L 403,329 L 404,330 L 406,330 L 407,331 L 408,331 L 409,332 L 410,332 L 411,333 L 412,333 L 413,334 L 414,334 L 415,335 L 416,335 L 417,336 L 419,336 L 420,337 L 422,337 L 423,338 L 424,338 L 425,337 L 425,336 L 427,334 L 427,332 L 428,331 L 428,330 L 429,329 L 429,327 L 428,326 L 427,326 L 426,325 L 425,325 L 424,324 L 423,324 L 422,323 L 420,323 L 419,322 L 417,322 L 416,321 L 415,321 L 414,320 L 412,320 L 411,319 L 410,319 L 409,318 L 407,318 L 406,317 L 404,317 L 403,316 L 401,316 L 400,315 L 399,315 L 398,314 L 395,314 L 394,313 L 392,313 L 391,312 L 390,312 L 389,311 L 387,311 L 386,310 L 383,310 L 382,309 L 381,309 L 380,308 L 377,308 L 376,307 L 374,307 L 373,306 L 371,306 L 370,305 L 367,305 L 366,304 L 364,304 L 363,303 L 360,303 L 359,302 Z" fill="gold" stroke="black" stroke-width="1"/><path d="M 881,301 L 880,302 L 876,302 L 875,303 L 871,303 L 870,304 L 867,304 L 866,305 L 863,305 L 862,306 L 859,306 L 858,307 L 856,307 L 855,308 L 853,308 L 852,309 L 849,309 L 848,310 L 846,310 L 845,311 L 843,311 L 842,312 L 839,312 L 838,313 L 836,313 L 835,314 L 833,314 L 832,315 L 830,315 L 829,316 L 827,316 L 826,317 L 823,317 L 822,318 L 820,318 L 819,319 L 817,319 L 816,320 L 814,320 L 813,321 L 811,321 L 810,322 L 809,322 L 808,323 L 807,323 L 806,324 L 803,324 L 802,325 L 800,325 L 799,326 L 798,326 L 797,327 L 797,330 L 798,331 L 798,333 L 799,334 L 799,336 L 800,337 L 800,338 L 801,339 L 804,339 L 805,338 L 806,338 L 807,337 L 809,337 L 810,336 L 811,336 L 812,335 L 814,335 L 815,334 L 817,334 L 818,333 L 819,333 L 820,332 L 821,332 L 822,331 L 824,331 L 825,330 L 826,330 L 827,329 L 829,329 L 831,327 L 833,327 L 834,326 L 835,326 L 836,325 L 838,325 L 839,324 L 840,324 L 841,323 L 842,323 L 843,322 L 845,322 L 847,320 L 849,320 L 850,319 L 851,319 L 852,318 L 853,318 L 854,317 L 855,317 L 856,316 L 857,316 L 858,315 L 859,315 L 860,314 L 861,314 L 862,313 L 863,313 L 864,312 L 866,312 L 867,311 L 868,311 L 869,310 L 870,310 L 872,308 L 873,308 L 874,307 L 875,307 L 876,306 L 877,306 L 878,305 L 879,305 L 880,304 L 881,304 L 882,303 L 883,303 L 884,302 L 884,301 Z" fill="gold" stroke="black" stroke-width="1"/><path d="M 600,282 L 599,283 L 599,288 L 600,289 L 600,294 L 601,295 L 601,298 L 602,299 L 602,300 L 603,301 L 603,303 L 604,304 L 604,305 L 605,306 L 605,307 L 606,308 L 606,309 L 608,311 L 608,312 L 609,313 L 609,314 L 611,316 L 611,317 L 615,321 L 615,322 L 621,328 L 622,328 L 625,331 L 626,331 L 629,334 L 631,334 L 633,336 L 635,336 L 636,337 L 637,337 L 638,338 L 639,338 L 640,339 L 642,339 L 643,340 L 645,340 L 646,341 L 648,341 L 649,342 L 654,342 L 655,343 L 664,343 L 665,344 L 666,343 L 679,343 L 680,342 L 684,342 L 685,341 L 689,341 L 690,340 L 692,340 L 693,339 L 695,339 L 696,338 L 697,338 L 698,337 L 700,337 L 701,336 L 702,336 L 703,335 L 705,335 L 706,334 L 707,334 L 709,332 L 711,332 L 713,330 L 714,330 L 716,328 L 717,328 L 719,326 L 720,326 L 722,324 L 723,324 L 723,323 L 724,322 L 725,322 L 726,321 L 726,320 L 727,319 L 726,318 L 726,317 L 725,316 L 725,315 L 721,311 L 721,310 L 717,306 L 717,305 L 715,303 L 715,302 L 712,299 L 712,298 L 709,295 L 709,294 L 706,291 L 706,290 L 705,289 L 704,290 L 702,290 L 702,291 L 694,299 L 693,299 L 691,301 L 690,301 L 688,303 L 687,303 L 685,305 L 684,305 L 683,306 L 682,306 L 681,307 L 680,307 L 679,308 L 678,308 L 677,309 L 676,309 L 675,310 L 673,310 L 672,311 L 670,311 L 669,312 L 666,312 L 665,313 L 660,313 L 659,314 L 641,314 L 640,313 L 636,313 L 635,312 L 633,312 L 632,311 L 630,311 L 629,310 L 627,310 L 626,309 L 625,309 L 624,308 L 623,308 L 622,307 L 621,307 L 618,304 L 617,304 L 607,294 L 607,293 L 605,291 L 605,290 L 603,288 L 603,287 L 602,286 L 602,285 L 601,284 L 601,283 Z" fill="gold" stroke="black" stroke-width="1"/><path d="M 649,260 L 648,261 L 647,261 L 646,262 L 646,263 L 630,279 L 630,280 L 626,284 L 626,286 L 631,291 L 631,292 L 639,300 L 639,301 L 643,305 L 643,306 L 648,311 L 650,311 L 653,308 L 653,307 L 660,300 L 660,299 L 669,290 L 669,289 L 671,287 L 672,287 L 672,286 L 673,285 L 670,282 L 670,281 L 664,275 L 664,274 L 650,260 Z" fill="gold" stroke="black" stroke-width="1"/><path d="M 839,244 L 838,245 L 836,245 L 835,246 L 834,246 L 833,247 L 832,247 L 830,249 L 828,249 L 827,250 L 826,250 L 825,251 L 824,251 L 823,252 L 822,252 L 821,253 L 820,253 L 818,255 L 817,255 L 816,256 L 815,256 L 814,257 L 813,257 L 811,259 L 809,259 L 807,261 L 806,261 L 805,262 L 804,262 L 802,264 L 801,264 L 800,265 L 799,265 L 797,267 L 796,267 L 795,268 L 794,268 L 793,269 L 792,269 L 790,271 L 789,271 L 787,273 L 786,273 L 784,275 L 783,275 L 781,277 L 780,277 L 778,279 L 777,279 L 776,280 L 775,280 L 772,283 L 771,283 L 770,284 L 769,284 L 768,285 L 768,286 L 769,287 L 769,288 L 770,289 L 770,290 L 772,292 L 772,293 L 775,296 L 776,295 L 777,295 L 780,292 L 781,292 L 783,290 L 784,290 L 787,287 L 788,287 L 790,285 L 791,285 L 793,283 L 794,283 L 797,280 L 798,280 L 802,276 L 803,276 L 807,272 L 808,272 L 811,269 L 812,269 L 815,266 L 816,266 L 820,262 L 821,262 L 826,257 L 827,257 L 836,248 L 837,248 L 840,245 L 840,244 Z" fill="gold" stroke="black" stroke-width="1"/><path d="M 910,243 L 909,244 L 907,244 L 906,245 L 904,245 L 903,246 L 901,246 L 900,247 L 899,247 L 898,248 L 896,248 L 895,249 L 893,249 L 892,250 L 891,250 L 890,251 L 889,251 L 888,252 L 887,252 L 886,253 L 884,253 L 883,254 L 882,254 L 881,255 L 879,255 L 878,256 L 877,256 L 876,257 L 875,257 L 874,258 L 873,258 L 872,259 L 871,259 L 870,260 L 869,260 L 868,261 L 866,261 L 865,262 L 864,262 L 863,263 L 862,263 L 861,264 L 860,264 L 859,265 L 858,265 L 857,266 L 856,266 L 855,267 L 854,267 L 853,268 L 852,268 L 851,269 L 850,269 L 849,270 L 848,270 L 846,272 L 845,272 L 844,273 L 843,273 L 842,274 L 841,274 L 840,275 L 839,275 L 837,277 L 836,277 L 835,278 L 834,278 L 833,279 L 832,279 L 831,280 L 830,280 L 829,281 L 828,281 L 827,282 L 826,282 L 825,283 L 824,283 L 822,285 L 821,285 L 820,286 L 819,286 L 818,287 L 817,287 L 816,288 L 815,288 L 814,289 L 813,289 L 812,290 L 811,290 L 809,292 L 808,292 L 807,293 L 806,293 L 805,294 L 804,294 L 802,296 L 801,296 L 800,297 L 799,297 L 798,298 L 797,298 L 796,299 L 795,299 L 793,301 L 792,301 L 791,302 L 790,302 L 789,303 L 788,303 L 786,305 L 785,305 L 784,306 L 785,307 L 785,308 L 786,309 L 786,310 L 787,311 L 787,312 L 788,313 L 788,314 L 789,315 L 789,316 L 791,318 L 792,318 L 793,317 L 794,317 L 795,316 L 796,316 L 797,315 L 798,315 L 800,313 L 801,313 L 802,312 L 803,312 L 804,311 L 805,311 L 806,310 L 807,310 L 808,309 L 809,309 L 811,307 L 812,307 L 813,306 L 814,306 L 816,304 L 817,304 L 818,303 L 819,303 L 820,302 L 821,302 L 823,300 L 824,300 L 825,299 L 826,299 L 827,298 L 828,298 L 829,297 L 830,297 L 832,295 L 833,295 L 834,294 L 835,294 L 837,292 L 838,292 L 839,291 L 840,291 L 841,290 L 842,290 L 844,288 L 845,288 L 847,286 L 849,286 L 851,284 L 852,284 L 853,283 L 854,283 L 856,281 L 857,281 L 859,279 L 860,279 L 861,278 L 862,278 L 864,276 L 865,276 L 867,274 L 868,274 L 869,273 L 870,273 L 873,270 L 874,270 L 876,268 L 877,268 L 878,267 L 879,267 L 881,265 L 882,265 L 883,264 L 884,264 L 887,261 L 888,261 L 889,260 L 890,260 L 893,257 L 894,257 L 896,255 L 897,255 L 899,253 L 900,253 L 902,251 L 903,251 L 906,248 L 907,248 L 909,246 L 910,246 L 912,244 L 912,243 Z" fill="gold" stroke="black" stroke-width="1"/><path d="M 327,240 L 327,241 L 329,243 L 330,243 L 335,248 L 336,248 L 339,251 L 340,251 L 343,254 L 344,254 L 347,257 L 348,257 L 351,260 L 352,260 L 354,262 L 355,262 L 357,264 L 358,264 L 361,267 L 362,267 L 364,269 L 365,269 L 367,271 L 368,271 L 370,273 L 371,273 L 373,275 L 374,275 L 377,278 L 378,278 L 380,280 L 381,280 L 382,281 L 383,281 L 385,283 L 386,283 L 388,285 L 389,285 L 391,287 L 392,287 L 393,288 L 394,288 L 397,291 L 398,291 L 400,293 L 401,293 L 403,295 L 404,295 L 405,296 L 406,296 L 408,298 L 409,298 L 410,299 L 411,299 L 413,301 L 414,301 L 416,303 L 417,303 L 418,304 L 419,304 L 421,306 L 422,306 L 423,307 L 424,307 L 426,309 L 427,309 L 429,311 L 430,311 L 431,312 L 432,312 L 433,313 L 434,313 L 435,314 L 436,314 L 437,313 L 437,312 L 439,310 L 439,309 L 440,308 L 440,307 L 442,305 L 442,304 L 443,303 L 443,302 L 441,300 L 440,300 L 439,299 L 438,299 L 437,298 L 436,298 L 434,296 L 433,296 L 431,294 L 430,294 L 428,292 L 427,292 L 426,291 L 425,291 L 423,289 L 422,289 L 421,288 L 420,288 L 418,286 L 417,286 L 416,285 L 415,285 L 413,283 L 412,283 L 411,282 L 410,282 L 408,280 L 407,280 L 406,279 L 405,279 L 404,278 L 403,278 L 402,277 L 401,277 L 399,275 L 398,275 L 397,274 L 396,274 L 394,272 L 393,272 L 392,271 L 391,271 L 390,270 L 389,270 L 388,269 L 387,269 L 385,267 L 384,267 L 383,266 L 382,266 L 381,265 L 380,265 L 379,264 L 378,264 L 376,262 L 375,262 L 374,261 L 373,261 L 372,260 L 371,260 L 370,259 L 369,259 L 368,258 L 367,258 L 366,257 L 365,257 L 364,256 L 363,256 L 361,254 L 359,254 L 358,253 L 357,253 L 356,252 L 355,252 L 353,250 L 351,250 L 350,249 L 349,249 L 348,248 L 347,248 L 346,247 L 345,247 L 344,246 L 343,246 L 342,245 L 340,245 L 339,244 L 338,244 L 337,243 L 335,243 L 334,242 L 333,242 L 332,241 L 331,241 L 330,240 Z" fill="gold" stroke="black" stroke-width="1"/><path d="M 387,234 L 387,236 L 399,248 L 400,248 L 401,249 L 401,250 L 402,250 L 410,258 L 411,258 L 417,264 L 418,264 L 422,268 L 423,268 L 428,273 L 429,273 L 434,278 L 435,278 L 439,282 L 440,282 L 444,286 L 445,286 L 447,288 L 448,288 L 449,289 L 451,289 L 452,288 L 452,287 L 456,283 L 456,282 L 458,280 L 458,278 L 455,275 L 454,275 L 452,273 L 451,273 L 449,271 L 448,271 L 446,269 L 445,269 L 442,266 L 441,266 L 439,264 L 438,264 L 435,261 L 434,261 L 433,260 L 432,260 L 430,258 L 429,258 L 427,256 L 426,256 L 425,255 L 424,255 L 422,253 L 421,253 L 419,251 L 418,251 L 416,249 L 415,249 L 414,248 L 413,248 L 412,247 L 411,247 L 410,246 L 409,246 L 407,244 L 406,244 L 405,243 L 404,243 L 402,241 L 401,241 L 400,240 L 399,240 L 398,239 L 396,239 L 394,237 L 392,237 L 390,235 L 389,235 L 388,234 Z" fill="gold" stroke="black" stroke-width="1"/><path d="M 602,225 L 601,226 L 591,226 L 590,227 L 583,227 L 582,228 L 576,228 L 575,229 L 571,229 L 570,230 L 567,230 L 566,231 L 564,231 L 563,232 L 560,232 L 559,233 L 557,233 L 556,234 L 554,234 L 553,235 L 551,235 L 550,236 L 548,236 L 547,237 L 545,237 L 544,238 L 543,238 L 542,239 L 540,239 L 539,240 L 538,240 L 537,241 L 536,241 L 535,242 L 533,242 L 532,243 L 531,243 L 530,244 L 529,244 L 528,245 L 527,245 L 526,246 L 525,246 L 524,247 L 523,247 L 522,248 L 521,248 L 519,250 L 518,250 L 517,251 L 516,251 L 514,253 L 513,253 L 512,254 L 511,254 L 509,256 L 508,256 L 506,258 L 505,258 L 502,261 L 501,261 L 499,263 L 498,263 L 494,267 L 493,267 L 487,273 L 486,273 L 474,285 L 474,286 L 466,294 L 466,295 L 462,299 L 462,300 L 460,302 L 460,303 L 457,306 L 457,307 L 455,309 L 455,310 L 453,312 L 453,313 L 451,315 L 451,316 L 450,317 L 450,318 L 448,320 L 448,321 L 447,322 L 447,323 L 446,324 L 446,325 L 445,326 L 445,327 L 444,328 L 444,329 L 443,330 L 443,331 L 442,332 L 442,333 L 441,334 L 441,335 L 440,336 L 440,337 L 439,338 L 439,339 L 438,340 L 438,341 L 437,342 L 437,344 L 436,345 L 436,346 L 435,347 L 435,349 L 434,350 L 434,352 L 433,353 L 433,355 L 432,356 L 432,358 L 431,359 L 431,361 L 430,362 L 430,365 L 429,366 L 429,369 L 428,370 L 428,372 L 427,373 L 427,376 L 426,377 L 426,382 L 425,383 L 425,388 L 424,389 L 424,396 L 423,397 L 423,413 L 422,414 L 423,415 L 423,436 L 424,437 L 424,444 L 425,445 L 425,451 L 426,452 L 426,456 L 427,457 L 427,461 L 428,462 L 428,465 L 429,466 L 429,468 L 430,469 L 430,471 L 431,472 L 431,475 L 432,476 L 432,478 L 433,479 L 433,480 L 434,481 L 434,483 L 435,484 L 435,486 L 436,487 L 436,488 L 437,489 L 437,491 L 438,492 L 438,493 L 439,494 L 439,496 L 440,497 L 440,498 L 441,499 L 441,500 L 442,501 L 442,502 L 443,503 L 443,504 L 444,505 L 444,506 L 445,507 L 445,508 L 446,509 L 446,510 L 447,511 L 447,512 L 448,513 L 448,514 L 451,517 L 451,518 L 452,519 L 452,520 L 454,522 L 454,523 L 455,524 L 455,525 L 457,527 L 457,528 L 460,531 L 460,532 L 463,535 L 463,536 L 466,539 L 466,540 L 471,545 L 471,546 L 481,556 L 481,557 L 482,557 L 484,559 L 484,560 L 485,561 L 486,561 L 492,567 L 493,567 L 494,568 L 495,568 L 496,567 L 499,567 L 500,566 L 506,566 L 507,565 L 514,565 L 515,564 L 512,561 L 511,561 L 508,558 L 507,558 L 502,553 L 501,553 L 493,545 L 492,545 L 487,540 L 487,539 L 480,532 L 480,531 L 476,527 L 476,526 L 472,522 L 472,521 L 471,520 L 471,519 L 468,516 L 468,515 L 466,513 L 466,512 L 464,510 L 464,509 L 463,508 L 463,507 L 462,506 L 462,505 L 460,503 L 460,502 L 459,501 L 459,500 L 458,499 L 458,498 L 457,497 L 457,496 L 456,495 L 456,494 L 455,493 L 455,492 L 454,491 L 454,490 L 453,489 L 453,487 L 452,486 L 452,485 L 451,484 L 451,482 L 450,481 L 450,480 L 449,479 L 449,478 L 448,477 L 448,474 L 447,473 L 447,471 L 446,470 L 446,468 L 445,467 L 445,465 L 444,464 L 444,461 L 443,460 L 443,456 L 442,455 L 442,452 L 441,451 L 441,446 L 440,445 L 440,440 L 439,439 L 439,429 L 438,428 L 438,404 L 439,403 L 439,394 L 440,393 L 440,387 L 441,386 L 441,382 L 442,381 L 442,377 L 443,376 L 443,373 L 444,372 L 444,369 L 445,368 L 445,366 L 446,365 L 446,363 L 447,362 L 447,360 L 448,359 L 448,357 L 449,356 L 449,354 L 450,353 L 450,352 L 451,351 L 451,349 L 452,348 L 452,347 L 453,346 L 453,345 L 454,344 L 454,342 L 455,341 L 455,340 L 456,339 L 456,338 L 457,337 L 457,336 L 458,335 L 458,334 L 459,333 L 459,332 L 461,330 L 461,329 L 462,328 L 462,327 L 463,326 L 463,325 L 465,323 L 465,322 L 467,320 L 467,319 L 469,317 L 469,316 L 471,314 L 471,313 L 474,310 L 474,309 L 479,304 L 479,303 L 484,298 L 484,297 L 495,286 L 496,286 L 503,279 L 504,279 L 507,276 L 508,276 L 510,274 L 511,274 L 514,271 L 515,271 L 517,269 L 518,269 L 520,267 L 521,267 L 523,265 L 524,265 L 525,264 L 526,264 L 527,263 L 528,263 L 530,261 L 531,261 L 532,260 L 533,260 L 534,259 L 535,259 L 536,258 L 537,258 L 538,257 L 540,257 L 541,256 L 542,256 L 543,255 L 544,255 L 545,254 L 547,254 L 548,253 L 549,253 L 550,252 L 552,252 L 553,251 L 555,251 L 556,250 L 558,250 L 559,249 L 561,249 L 562,248 L 564,248 L 565,247 L 568,247 L 569,246 L 572,246 L 573,245 L 576,245 L 577,244 L 581,244 L 582,243 L 588,243 L 589,242 L 597,242 L 598,241 L 628,241 L 629,242 L 636,242 L 637,243 L 643,243 L 644,244 L 648,244 L 649,245 L 652,245 L 653,246 L 656,246 L 657,247 L 660,247 L 661,248 L 664,248 L 665,249 L 667,249 L 668,250 L 670,250 L 671,251 L 673,251 L 674,252 L 675,252 L 676,253 L 677,253 L 678,254 L 680,254 L 681,255 L 682,255 L 683,256 L 685,256 L 686,257 L 687,257 L 688,258 L 689,258 L 690,259 L 691,259 L 692,260 L 693,260 L 694,261 L 695,261 L 696,262 L 697,262 L 699,264 L 700,264 L 701,265 L 702,265 L 704,267 L 705,267 L 706,268 L 707,268 L 709,270 L 710,270 L 713,273 L 714,273 L 717,276 L 718,276 L 722,280 L 723,280 L 729,286 L 730,286 L 731,287 L 731,288 L 732,288 L 737,293 L 737,294 L 744,301 L 744,302 L 748,306 L 748,307 L 751,310 L 751,311 L 753,313 L 753,314 L 756,317 L 756,318 L 758,320 L 758,321 L 759,322 L 759,323 L 761,325 L 761,326 L 762,327 L 762,328 L 763,329 L 763,330 L 765,332 L 765,333 L 766,334 L 766,335 L 767,336 L 767,337 L 768,338 L 768,340 L 770,342 L 770,344 L 771,345 L 771,346 L 772,347 L 772,349 L 773,350 L 773,351 L 774,352 L 774,354 L 775,355 L 775,357 L 776,358 L 776,361 L 777,362 L 777,364 L 778,365 L 778,367 L 779,368 L 779,371 L 780,372 L 780,376 L 781,377 L 781,381 L 782,382 L 782,385 L 783,386 L 783,391 L 784,392 L 784,400 L 785,401 L 785,429 L 784,430 L 784,439 L 783,440 L 783,445 L 782,446 L 782,451 L 781,452 L 781,458 L 780,459 L 780,464 L 779,465 L 779,468 L 778,469 L 778,473 L 777,474 L 778,475 L 779,475 L 780,474 L 781,474 L 783,472 L 784,472 L 785,471 L 786,471 L 788,469 L 789,469 L 791,467 L 792,467 L 794,465 L 794,464 L 795,463 L 795,460 L 796,459 L 796,456 L 797,455 L 797,453 L 798,452 L 798,448 L 799,447 L 799,442 L 800,441 L 800,434 L 801,433 L 801,422 L 802,421 L 802,413 L 801,412 L 801,399 L 800,398 L 800,390 L 799,389 L 799,383 L 798,382 L 798,378 L 797,377 L 797,373 L 796,372 L 796,369 L 795,368 L 795,365 L 794,364 L 794,362 L 793,361 L 793,359 L 792,358 L 792,355 L 791,354 L 791,353 L 790,352 L 790,350 L 789,349 L 789,347 L 788,346 L 788,345 L 787,344 L 787,342 L 786,341 L 786,340 L 785,339 L 785,337 L 784,336 L 784,335 L 783,334 L 783,333 L 782,332 L 782,330 L 781,329 L 781,328 L 779,326 L 779,325 L 778,324 L 778,323 L 777,322 L 777,321 L 776,320 L 776,319 L 774,317 L 774,316 L 773,315 L 773,314 L 771,312 L 771,311 L 769,309 L 769,308 L 767,306 L 767,305 L 765,303 L 765,302 L 761,298 L 761,297 L 757,293 L 757,292 L 750,285 L 750,284 L 740,274 L 739,274 L 733,268 L 732,268 L 728,264 L 727,264 L 724,261 L 723,261 L 721,259 L 720,259 L 718,257 L 717,257 L 714,254 L 713,254 L 712,253 L 711,253 L 709,251 L 708,251 L 707,250 L 706,250 L 704,248 L 703,248 L 702,247 L 701,247 L 700,246 L 699,246 L 698,245 L 697,245 L 696,244 L 695,244 L 694,243 L 693,243 L 692,242 L 691,242 L 690,241 L 688,241 L 687,240 L 686,240 L 685,239 L 683,239 L 682,238 L 681,238 L 680,237 L 679,237 L 678,236 L 676,236 L 675,235 L 673,235 L 672,234 L 670,234 L 669,233 L 667,233 L 666,232 L 663,232 L 662,231 L 659,231 L 658,230 L 655,230 L 654,229 L 649,229 L 648,228 L 642,228 L 641,227 L 634,227 L 633,226 L 625,226 L 624,225 Z" fill="gold" stroke="black" stroke-width="1"/><path d="M 794,198 L 791,201 L 790,201 L 790,202 L 789,203 L 788,203 L 786,205 L 785,205 L 781,209 L 780,209 L 776,213 L 775,213 L 775,214 L 774,215 L 773,215 L 769,219 L 768,219 L 757,230 L 756,230 L 735,251 L 735,253 L 740,258 L 741,258 L 742,259 L 743,258 L 744,258 L 750,252 L 750,251 L 751,250 L 752,250 L 752,249 L 753,248 L 754,248 L 754,247 L 766,235 L 766,234 L 774,226 L 774,225 L 779,220 L 779,219 L 784,214 L 784,213 L 786,211 L 786,210 L 790,206 L 790,205 L 794,201 L 794,200 L 795,199 Z" fill="gold" stroke="black" stroke-width="1"/><path d="M 438,178 L 439,179 L 439,180 L 440,181 L 440,183 L 442,185 L 442,186 L 443,187 L 443,188 L 444,189 L 444,190 L 445,191 L 445,192 L 447,194 L 447,195 L 448,196 L 448,197 L 450,199 L 450,200 L 452,202 L 452,203 L 453,204 L 453,205 L 454,206 L 454,207 L 456,209 L 456,210 L 458,212 L 458,213 L 460,215 L 460,216 L 462,218 L 462,219 L 463,220 L 463,221 L 465,223 L 465,224 L 467,226 L 467,227 L 470,230 L 470,231 L 472,233 L 472,234 L 474,236 L 474,237 L 477,240 L 477,241 L 479,243 L 479,244 L 482,247 L 482,248 L 485,251 L 485,252 L 486,253 L 488,253 L 489,252 L 490,252 L 494,248 L 495,248 L 496,247 L 496,245 L 494,243 L 494,242 L 491,239 L 491,238 L 489,236 L 489,235 L 486,232 L 486,231 L 482,227 L 482,226 L 478,222 L 478,221 L 475,218 L 475,217 L 472,214 L 472,213 L 467,208 L 467,207 L 463,203 L 463,202 L 456,195 L 456,194 L 440,178 Z" fill="gold" stroke="black" stroke-width="1"/><path d="M 869,164 L 868,165 L 867,165 L 865,167 L 864,167 L 861,170 L 860,170 L 857,173 L 856,173 L 853,176 L 852,176 L 847,181 L 846,181 L 841,186 L 840,186 L 835,191 L 834,191 L 826,199 L 825,199 L 817,207 L 816,207 L 806,217 L 805,217 L 805,218 L 804,219 L 803,219 L 793,229 L 792,229 L 781,240 L 780,240 L 769,251 L 768,251 L 758,261 L 757,261 L 757,262 L 754,265 L 753,265 L 753,266 L 751,268 L 753,270 L 753,271 L 755,273 L 755,274 L 756,274 L 759,277 L 760,276 L 761,276 L 763,274 L 764,274 L 768,270 L 769,270 L 772,267 L 773,267 L 776,264 L 777,264 L 777,263 L 778,262 L 779,262 L 783,258 L 784,258 L 792,250 L 793,250 L 801,242 L 802,242 L 838,206 L 838,205 L 845,198 L 845,197 L 850,192 L 850,191 L 854,187 L 854,186 L 858,182 L 858,181 L 861,178 L 861,177 L 864,174 L 864,173 L 867,170 L 867,169 L 870,166 L 870,164 Z" fill="gold" stroke="black" stroke-width="1"/><path d="M 734,156 L 733,157 L 733,158 L 731,160 L 731,161 L 728,164 L 728,165 L 727,166 L 727,167 L 724,170 L 724,171 L 723,172 L 723,173 L 721,175 L 721,176 L 719,178 L 719,179 L 718,180 L 718,181 L 716,183 L 716,184 L 715,185 L 715,186 L 713,188 L 713,189 L 712,190 L 712,191 L 711,192 L 711,193 L 709,195 L 709,196 L 708,197 L 708,198 L 706,200 L 706,201 L 705,202 L 705,203 L 703,205 L 703,206 L 702,207 L 702,208 L 701,209 L 701,210 L 699,212 L 699,213 L 698,214 L 698,215 L 697,216 L 697,217 L 695,219 L 695,220 L 694,221 L 694,222 L 693,223 L 693,224 L 691,226 L 693,228 L 694,228 L 695,229 L 696,229 L 697,230 L 699,230 L 700,231 L 701,231 L 703,229 L 703,228 L 704,227 L 704,226 L 705,225 L 705,224 L 706,223 L 706,222 L 707,221 L 707,220 L 708,219 L 708,218 L 709,217 L 709,216 L 710,215 L 710,214 L 711,213 L 711,212 L 712,211 L 712,210 L 713,209 L 713,208 L 714,207 L 714,206 L 715,205 L 715,204 L 716,203 L 716,202 L 717,201 L 717,199 L 718,198 L 718,197 L 719,196 L 719,195 L 721,193 L 721,191 L 722,190 L 722,189 L 723,188 L 723,187 L 724,186 L 724,185 L 725,184 L 725,182 L 726,181 L 726,180 L 727,179 L 727,178 L 728,177 L 728,175 L 729,174 L 729,173 L 730,172 L 730,171 L 731,170 L 731,167 L 732,166 L 732,164 L 733,163 L 733,162 L 734,161 L 734,159 L 735,158 L 735,157 Z" fill="gold" stroke="black" stroke-width="1"/><path d="M 503,153 L 503,156 L 504,157 L 504,161 L 505,162 L 505,165 L 506,166 L 506,168 L 507,169 L 507,172 L 508,173 L 508,175 L 509,176 L 509,178 L 510,179 L 510,182 L 511,183 L 511,185 L 512,186 L 512,188 L 513,189 L 513,191 L 514,192 L 514,194 L 515,195 L 515,197 L 516,198 L 516,200 L 517,201 L 517,202 L 518,203 L 518,204 L 519,205 L 519,207 L 520,208 L 520,210 L 521,211 L 521,213 L 522,214 L 522,215 L 523,216 L 523,218 L 524,219 L 524,220 L 525,221 L 525,223 L 526,224 L 526,225 L 527,226 L 527,228 L 528,229 L 531,229 L 532,228 L 534,228 L 536,226 L 538,226 L 538,223 L 537,222 L 537,221 L 536,220 L 536,218 L 535,217 L 535,216 L 534,215 L 534,213 L 533,212 L 533,211 L 532,210 L 532,208 L 530,206 L 530,204 L 529,203 L 529,202 L 528,201 L 528,199 L 527,198 L 527,197 L 526,196 L 526,195 L 525,194 L 525,193 L 524,192 L 524,191 L 523,190 L 523,189 L 522,188 L 522,187 L 521,186 L 521,184 L 520,183 L 520,182 L 519,181 L 519,180 L 518,179 L 518,178 L 517,177 L 517,176 L 516,175 L 516,174 L 515,173 L 515,172 L 514,171 L 514,170 L 512,168 L 512,166 L 511,165 L 511,164 L 509,162 L 509,161 L 508,160 L 508,159 L 506,157 L 506,156 L 505,155 L 505,154 L 504,153 Z" fill="gold" stroke="black" stroke-width="1"/><path d="M 358,143 L 358,145 L 359,146 L 359,147 L 361,149 L 361,150 L 363,152 L 363,153 L 365,155 L 365,156 L 368,159 L 368,160 L 370,162 L 370,163 L 373,166 L 373,167 L 376,170 L 376,171 L 380,175 L 380,176 L 383,179 L 383,180 L 387,184 L 387,185 L 391,189 L 391,190 L 395,194 L 395,195 L 399,199 L 399,200 L 406,207 L 406,208 L 413,215 L 413,216 L 426,229 L 426,230 L 464,268 L 465,268 L 467,270 L 468,270 L 472,266 L 473,266 L 473,265 L 477,261 L 477,259 L 465,247 L 465,246 L 446,227 L 446,226 L 431,211 L 431,210 L 390,169 L 389,169 L 381,161 L 380,161 L 374,155 L 373,155 L 369,151 L 368,151 L 364,147 L 363,147 L 359,143 Z" fill="gold" stroke="black" stroke-width="1"/><path d="M 803,127 L 801,129 L 800,129 L 800,130 L 799,131 L 798,131 L 792,137 L 792,138 L 784,146 L 784,147 L 778,153 L 778,154 L 772,160 L 772,161 L 767,166 L 767,167 L 763,171 L 763,172 L 758,177 L 758,178 L 754,182 L 754,183 L 750,187 L 750,188 L 746,192 L 746,193 L 742,197 L 742,198 L 738,202 L 738,203 L 735,206 L 735,207 L 731,211 L 731,212 L 727,216 L 727,217 L 724,220 L 724,221 L 720,225 L 720,226 L 718,228 L 718,229 L 714,233 L 714,234 L 713,235 L 713,236 L 712,237 L 714,239 L 715,239 L 717,241 L 718,241 L 720,243 L 721,243 L 722,244 L 724,244 L 728,240 L 728,239 L 732,235 L 732,234 L 736,230 L 736,229 L 741,224 L 741,223 L 746,218 L 746,217 L 749,214 L 749,213 L 752,210 L 752,209 L 755,206 L 755,205 L 757,203 L 757,202 L 761,198 L 761,197 L 763,195 L 763,194 L 765,192 L 765,191 L 768,188 L 768,187 L 770,185 L 770,184 L 772,182 L 772,181 L 774,179 L 774,178 L 777,175 L 777,174 L 779,172 L 779,171 L 781,169 L 781,168 L 782,167 L 782,166 L 784,164 L 784,163 L 785,162 L 785,161 L 787,159 L 787,158 L 789,156 L 789,155 L 790,154 L 790,153 L 791,152 L 791,151 L 793,149 L 793,148 L 794,147 L 794,146 L 795,145 L 795,144 L 796,143 L 796,142 L 798,140 L 798,139 L 799,138 L 799,137 L 800,136 L 800,135 L 801,134 L 801,133 L 802,132 L 802,131 L 803,130 Z" fill="gold" stroke="black" stroke-width="1"/><path d="M 569,122 L 569,169 L 570,170 L 570,184 L 571,185 L 571,195 L 572,196 L 572,203 L 573,204 L 573,211 L 574,212 L 574,215 L 579,215 L 580,214 L 583,214 L 584,213 L 584,206 L 583,205 L 583,199 L 582,198 L 582,191 L 581,190 L 581,184 L 580,183 L 580,177 L 579,176 L 579,169 L 578,168 L 578,162 L 577,161 L 577,156 L 576,155 L 576,149 L 575,148 L 575,143 L 574,142 L 574,136 L 573,135 L 573,132 L 572,131 L 572,127 L 571,126 L 571,123 L 570,122 Z" fill="gold" stroke="black" stroke-width="1"/><path d="M 655,112 L 654,113 L 654,116 L 653,117 L 653,120 L 652,121 L 652,124 L 651,125 L 651,128 L 650,129 L 650,132 L 649,133 L 649,137 L 648,138 L 648,141 L 647,142 L 647,146 L 646,147 L 646,150 L 645,151 L 645,155 L 644,156 L 644,161 L 643,162 L 643,166 L 642,167 L 642,171 L 641,172 L 641,177 L 640,178 L 640,183 L 639,184 L 639,189 L 638,190 L 638,195 L 637,196 L 637,203 L 636,204 L 636,209 L 635,210 L 635,212 L 636,213 L 640,213 L 641,214 L 644,214 L 645,215 L 646,215 L 647,214 L 647,210 L 648,209 L 648,203 L 649,202 L 649,197 L 650,196 L 650,190 L 651,189 L 651,181 L 652,180 L 652,172 L 653,171 L 653,161 L 654,160 L 654,151 L 655,150 L 655,137 L 656,136 L 656,112 Z" fill="gold" stroke="black" stroke-width="1"/><path d="M 448,109 L 448,113 L 449,114 L 449,116 L 450,117 L 450,120 L 451,121 L 451,122 L 452,123 L 452,125 L 453,126 L 453,128 L 454,129 L 454,131 L 455,132 L 455,133 L 456,134 L 456,136 L 457,137 L 457,138 L 458,139 L 458,141 L 459,142 L 459,144 L 460,145 L 460,146 L 461,147 L 461,148 L 462,149 L 462,151 L 463,152 L 463,153 L 464,154 L 464,156 L 465,157 L 465,158 L 466,159 L 466,160 L 467,161 L 467,162 L 468,163 L 468,164 L 469,165 L 469,167 L 470,168 L 470,169 L 471,170 L 471,171 L 472,172 L 472,173 L 473,174 L 473,175 L 474,176 L 474,178 L 475,179 L 475,180 L 476,181 L 476,182 L 477,183 L 477,184 L 478,185 L 478,186 L 479,187 L 479,188 L 481,190 L 481,191 L 482,192 L 482,194 L 483,195 L 483,196 L 484,197 L 484,198 L 486,200 L 486,201 L 487,202 L 487,203 L 488,204 L 488,205 L 489,206 L 489,207 L 490,208 L 490,209 L 491,210 L 491,211 L 492,212 L 492,213 L 493,214 L 493,215 L 494,216 L 494,217 L 495,218 L 495,219 L 497,221 L 497,222 L 498,223 L 498,224 L 499,225 L 499,226 L 500,227 L 500,228 L 502,230 L 502,232 L 503,233 L 503,234 L 505,236 L 505,237 L 507,239 L 507,240 L 509,240 L 510,239 L 511,239 L 512,238 L 513,238 L 514,237 L 515,237 L 517,235 L 518,235 L 519,234 L 519,232 L 518,231 L 518,230 L 517,229 L 517,228 L 516,227 L 516,226 L 515,225 L 515,224 L 514,223 L 514,222 L 512,220 L 512,219 L 511,218 L 511,217 L 510,216 L 510,215 L 509,214 L 509,213 L 508,212 L 508,211 L 507,210 L 507,209 L 505,207 L 505,206 L 504,205 L 504,204 L 503,203 L 503,202 L 502,201 L 502,200 L 501,199 L 501,198 L 500,197 L 500,196 L 499,195 L 499,194 L 497,192 L 497,191 L 496,190 L 496,189 L 495,188 L 495,187 L 494,186 L 494,185 L 492,183 L 492,182 L 491,181 L 491,180 L 490,179 L 490,178 L 489,177 L 489,176 L 488,175 L 488,174 L 487,173 L 487,172 L 486,171 L 486,170 L 484,168 L 484,167 L 483,166 L 483,165 L 482,164 L 482,163 L 481,162 L 481,161 L 480,160 L 480,159 L 479,158 L 479,157 L 477,155 L 477,154 L 476,153 L 476,152 L 475,151 L 475,150 L 473,148 L 473,147 L 472,146 L 472,145 L 471,144 L 471,143 L 469,141 L 469,140 L 468,139 L 468,138 L 466,136 L 466,135 L 465,134 L 465,133 L 463,131 L 463,130 L 462,129 L 462,128 L 460,126 L 460,125 L 458,123 L 458,122 L 456,120 L 456,119 L 454,117 L 454,116 L 452,114 L 452,113 L 449,110 L 449,109 Z" fill="gold" stroke="black" stroke-width="1"/><path d="M 516,87 L 516,88 L 517,89 L 517,97 L 518,98 L 518,104 L 519,105 L 519,110 L 520,111 L 520,116 L 521,117 L 521,121 L 522,122 L 522,127 L 523,128 L 523,132 L 524,133 L 524,137 L 525,138 L 525,142 L 526,143 L 526,146 L 527,147 L 527,150 L 528,151 L 528,155 L 529,156 L 529,159 L 530,160 L 530,163 L 531,164 L 531,167 L 532,168 L 532,171 L 533,172 L 533,175 L 534,176 L 534,179 L 535,180 L 535,182 L 536,183 L 536,186 L 537,187 L 537,189 L 538,190 L 538,192 L 539,193 L 539,196 L 540,197 L 540,200 L 541,201 L 541,203 L 542,204 L 542,207 L 543,208 L 543,210 L 544,211 L 544,213 L 545,214 L 545,216 L 546,217 L 546,219 L 547,220 L 547,221 L 548,222 L 549,221 L 554,221 L 555,220 L 556,220 L 557,219 L 558,219 L 559,218 L 560,218 L 560,217 L 559,216 L 559,213 L 558,212 L 558,209 L 557,208 L 557,206 L 556,205 L 556,202 L 555,201 L 555,199 L 554,198 L 554,195 L 553,194 L 553,192 L 552,191 L 552,189 L 551,188 L 551,185 L 550,184 L 550,182 L 549,181 L 549,178 L 548,177 L 548,175 L 547,174 L 547,171 L 546,170 L 546,168 L 545,167 L 545,165 L 544,164 L 544,161 L 543,160 L 543,158 L 542,157 L 542,155 L 541,154 L 541,151 L 540,150 L 540,148 L 539,147 L 539,145 L 538,144 L 538,142 L 537,141 L 537,138 L 536,137 L 536,135 L 535,134 L 535,132 L 534,131 L 534,129 L 533,128 L 533,126 L 532,125 L 532,123 L 531,122 L 531,120 L 530,119 L 530,117 L 529,116 L 529,114 L 528,113 L 528,111 L 527,110 L 527,109 L 526,108 L 526,106 L 525,105 L 525,104 L 524,103 L 524,101 L 523,100 L 523,99 L 522,98 L 522,97 L 521,96 L 521,94 L 520,93 L 520,92 L 519,91 L 519,90 L 518,89 L 518,88 L 517,87 Z" fill="gold" stroke="black" stroke-width="1"/><path d="M 717,79 L 716,80 L 716,81 L 714,83 L 714,84 L 713,85 L 713,86 L 712,87 L 712,88 L 711,89 L 711,90 L 710,91 L 710,92 L 709,93 L 709,94 L 708,95 L 708,96 L 707,97 L 707,99 L 706,100 L 706,101 L 705,102 L 705,103 L 704,104 L 704,105 L 703,106 L 703,108 L 702,109 L 702,110 L 701,111 L 701,112 L 700,113 L 700,114 L 699,115 L 699,117 L 698,118 L 698,119 L 697,120 L 697,122 L 696,123 L 696,124 L 695,125 L 695,127 L 694,128 L 694,129 L 693,130 L 693,131 L 692,132 L 692,134 L 691,135 L 691,137 L 690,138 L 690,139 L 689,140 L 689,142 L 688,143 L 688,144 L 687,145 L 687,147 L 686,148 L 686,149 L 685,150 L 685,151 L 684,152 L 684,154 L 683,155 L 683,157 L 682,158 L 682,159 L 681,160 L 681,162 L 680,163 L 680,164 L 679,165 L 679,167 L 678,168 L 678,170 L 677,171 L 677,173 L 676,174 L 676,176 L 675,177 L 675,179 L 674,180 L 674,182 L 673,183 L 673,185 L 672,186 L 672,187 L 671,188 L 671,191 L 670,192 L 670,193 L 669,194 L 669,197 L 668,198 L 668,200 L 667,201 L 667,203 L 666,204 L 666,207 L 665,208 L 665,210 L 664,211 L 664,213 L 663,214 L 663,217 L 664,217 L 665,218 L 668,218 L 669,219 L 671,219 L 672,220 L 676,220 L 677,221 L 679,219 L 679,217 L 680,216 L 680,214 L 681,213 L 681,211 L 682,210 L 682,209 L 683,208 L 683,206 L 684,205 L 684,203 L 685,202 L 685,200 L 686,199 L 686,197 L 687,196 L 687,194 L 688,193 L 688,191 L 689,190 L 689,189 L 690,188 L 690,186 L 691,185 L 691,183 L 692,182 L 692,180 L 693,179 L 693,177 L 694,176 L 694,174 L 695,173 L 695,170 L 696,169 L 696,167 L 697,166 L 697,164 L 698,163 L 698,160 L 699,159 L 699,158 L 700,157 L 700,154 L 701,153 L 701,151 L 702,150 L 702,148 L 703,147 L 703,144 L 704,143 L 704,141 L 705,140 L 705,138 L 706,137 L 706,134 L 707,133 L 707,131 L 708,130 L 708,127 L 709,126 L 709,123 L 710,122 L 710,119 L 711,118 L 711,115 L 712,114 L 712,111 L 713,110 L 713,106 L 714,105 L 714,101 L 715,100 L 715,96 L 716,95 L 716,91 L 717,90 L 717,86 L 718,85 L 718,79 Z" fill="gold" stroke="black" stroke-width="1"/><path d="M 612,49 L 611,50 L 611,54 L 610,55 L 610,58 L 609,59 L 609,63 L 608,64 L 608,69 L 607,70 L 607,75 L 606,76 L 606,82 L 605,83 L 605,92 L 604,93 L 604,101 L 603,102 L 603,112 L 602,113 L 602,125 L 601,126 L 601,143 L 600,144 L 600,167 L 599,168 L 599,212 L 601,212 L 602,213 L 611,213 L 612,212 L 613,213 L 615,213 L 616,212 L 618,212 L 619,211 L 619,167 L 620,166 L 619,165 L 619,122 L 618,121 L 618,100 L 617,99 L 617,84 L 616,83 L 616,70 L 615,69 L 615,60 L 614,59 L 614,51 L 613,50 L 613,49 Z" fill="gold" stroke="black" stroke-width="1"/></svg>